<?xml version="1.0" encoding="utf-8"?>
<!-- Generator: Adobe Illustrator 27.9.0, SVG Export Plug-In . SVG Version: 6.00 Build 0)  -->
<svg version="1.1" id="Layer_1" xmlns="http://www.w3.org/2000/svg" xmlns:xlink="http://www.w3.org/1999/xlink" x="0px" y="0px"
	 viewBox="0 0 200 200" style="enable-background:new 0 0 200 200;" xml:space="preserve">
<style type="text/css">
	.st0{fill:#333333;}
	.st1{filter:url(#Adobe_OpacityMaskFilter);}
	.st2{fill:url(#SVGID_00000119097384759457461570000001592266660268584068_);}
	.st3{opacity:0.5;mask:url(#SVGID_1_);fill:#333333;}
	.st4{filter:url(#Adobe_OpacityMaskFilter_00000048484076456947998980000013001077008151857305_);}
	.st5{fill:url(#SVGID_00000152256461494700855730000015162086750576787355_);}
	.st6{opacity:0.5;mask:url(#SVGID_00000098937927913191557420000002661914058805011364_);}
	.st7{filter:url(#Adobe_OpacityMaskFilter_00000062172544215216702990000003011362619103020686_);}
	.st8{fill:url(#SVGID_00000074443784691283880180000000106093351066820267_);}
	.st9{opacity:0.5;mask:url(#SVGID_00000078730533449648845700000014152735392740637600_);}
	.st10{filter:url(#Adobe_OpacityMaskFilter_00000003086764696225899670000008641796210399831690_);}
	.st11{fill:url(#SVGID_00000143606241158665585660000002405793542938529431_);}
	.st12{opacity:0.5;mask:url(#SVGID_00000152256577453656960960000013783480420069762704_);fill:#333333;}
	.st13{filter:url(#Adobe_OpacityMaskFilter_00000179631581354307477870000017915958669450897307_);}
	.st14{fill:url(#SVGID_00000088099894069891415820000003470165083615422619_);}
	.st15{opacity:0.5;mask:url(#SVGID_00000079448825425405945240000000614679244561730725_);}
	.st16{filter:url(#Adobe_OpacityMaskFilter_00000000916573038053538410000010780132444474572962_);}
	.st17{fill:url(#SVGID_00000144328965193286271870000013671752928012198804_);}
	.st18{opacity:0.5;mask:url(#SVGID_00000132048230750788613760000016059820705769478847_);}
	.st19{filter:url(#Adobe_OpacityMaskFilter_00000107562253336360836470000002466801291796526258_);}
	.st20{fill:url(#SVGID_00000031909884541678829070000011297201958122308742_);}
	.st21{opacity:0.5;mask:url(#SVGID_00000142875408635221714500000008223370380795872647_);}
	.st22{filter:url(#Adobe_OpacityMaskFilter_00000158718511459721483730000005890478864553072275_);}
	.st23{fill:url(#SVGID_00000080892400747935790340000001388726351908107447_);}
	.st24{opacity:0.5;mask:url(#SVGID_00000150093641087791546260000007612922342022075538_);}
	.st25{filter:url(#Adobe_OpacityMaskFilter_00000039842706160158014290000001000944064514450316_);}
	.st26{fill:url(#SVGID_00000004505038065778684900000008495293707678388621_);}
	.st27{opacity:0.5;mask:url(#SVGID_00000093879580669779519110000003852658547721692578_);}
	.st28{filter:url(#Adobe_OpacityMaskFilter_00000056401884839070318870000002678082263126048148_);}
	.st29{fill:url(#SVGID_00000163050288490299801530000011296181769044739471_);}
	.st30{opacity:0.5;mask:url(#SVGID_00000080899287466285901170000003700084537651364490_);}
	.st31{filter:url(#Adobe_OpacityMaskFilter_00000073003183431048764350000012182028899211702457_);}
	.st32{fill:url(#SVGID_00000119093166952292496060000003044812357936902818_);}
	.st33{opacity:0.5;mask:url(#SVGID_00000087389463561670995180000016853364696202568578_);}
	.st34{filter:url(#Adobe_OpacityMaskFilter_00000106859999926211184520000002842946763907877784_);}
	.st35{fill:url(#SVGID_00000080901003184551449750000010574071686663186833_);}
	.st36{opacity:0.5;mask:url(#SVGID_00000104692072097484172950000005516778583399677594_);}
	.st37{filter:url(#Adobe_OpacityMaskFilter_00000168825041449570719880000009260511468362002327_);}
	.st38{fill:url(#SVGID_00000163054189923143761530000003192023505862525113_);}
	.st39{opacity:0.5;mask:url(#SVGID_00000078724301309263808110000018139433160973110191_);}
	.st40{filter:url(#Adobe_OpacityMaskFilter_00000036237111662980979400000010079306306027997082_);}
	.st41{fill:url(#SVGID_00000054959027041116672970000000926863702904875941_);}
	.st42{opacity:0.5;mask:url(#SVGID_00000003107268163536092280000012669308648660519063_);}
	.st43{filter:url(#Adobe_OpacityMaskFilter_00000011713124067120336730000002646074433408029064_);}
	.st44{fill:url(#SVGID_00000040544118601434159290000016146564265558708895_);}
	.st45{opacity:0.5;mask:url(#SVGID_00000148658010178114808690000010835587715684365710_);}
</style>
<g>
	<path class="st0" d="M430.43-86.68l-8.38-7.5c-0.15-0.13-0.34-0.2-0.53-0.2h-15.96v-6.7c0-0.44-0.36-0.8-0.8-0.8h-10.57
		c-0.44,0-0.8,0.36-0.8,0.8v6.7h-7.58c-0.44,0-0.8,0.36-0.8,0.8v7.5c0,0.44,0.36,0.8,0.8,0.8h7.58v29.19h-3.36l-1.41,2.05v2.88
		h21.71v-2.88l-1.41-2.05h-3.36v-29.19h13.96v11.73h-0.49v2.88l1.41,2.05h1.15v1.19c0,0.22,0.18,0.4,0.4,0.4
		c0.84,0,1.53,0.69,1.53,1.53c0,0.84-0.68,1.53-1.53,1.53c-0.49,0-0.94-0.23-1.23-0.62c-0.13-0.18-0.38-0.22-0.56-0.08
		c-0.18,0.13-0.21,0.38-0.08,0.56c0.44,0.59,1.14,0.94,1.87,0.94c1.28,0,2.33-1.04,2.33-2.33c0-1.15-0.83-2.1-1.93-2.29v-0.83h0.94
		l1.41-2.05v-2.88h-0.49v-11.73h5.65c0.33,0,0.63-0.2,0.75-0.51C430.77-86.11,430.68-86.46,430.43-86.68z M402.25-92.78l-2.77,1.97
		l-2.77-1.97H402.25z M396.7-94.38l2.77-1.97l2.77,1.97H396.7z M400.86-97.33l3.1-2.2v4.4L400.86-97.33z M399.48-98.31l-2.77-1.97
		h5.55L399.48-98.31z M398.1-97.33l-3.1,2.2v-4.4L398.1-97.33z M398.1-89.83l-3.1,2.2v-4.4L398.1-89.83z M396.7-86.89l2.77-1.97
		l2.77,1.97H396.7z M402.25-85.29l-2.77,1.97l-2.77-1.97H402.25z M398.1-82.34l-3.1,2.2v-4.4L398.1-82.34z M403.96-65.14l-3.1-2.2
		l3.1-2.2V-65.14z M403.38-63.6l-3.9,2.77l-3.9-2.77l3.9-2.77L403.38-63.6z M399.48-68.33l-3.9-2.77l3.9-2.77l3.9,2.77L399.48-68.33
		z M403.96-72.64l-3.1-2.2l3.1-2.2V-72.64z M399.48-75.82l-3.9-2.77l3.9-2.77l3.9,2.77L399.48-75.82z M394.99-77.04l3.1,2.2
		l-3.1,2.2V-77.04z M394.99-69.55l3.1,2.2l-3.1,2.2V-69.55z M394.99-62.05l3.1,2.2l-3.1,2.2V-62.05z M399.48-58.87l2.77,1.97h-5.55
		L399.48-58.87z M400.86-59.85l3.1-2.2v4.4L400.86-59.85z M400.86-82.34l3.1-2.2v4.4L400.86-82.34z M400.86-89.83l3.1-2.2v4.4
		L400.86-89.83z M413.94-91.79l5.48,4.91h-5.48V-91.79z M412.34-87.88l-5.48-4.91h5.48V-87.88z M415.24-92.78h5.48v4.91
		L415.24-92.78z M393.39-87.88l-5.48-4.91h5.48V-87.88z M386.62-91.79l5.48,4.91h-5.48V-91.79z M405.56-91.79l5.48,4.91h-5.48
		V-91.79z M423.45-73.71h-3.13v-11.58h3.13V-73.71z M422.32-86.89v-4.91l5.48,4.91H422.32z"/>
</g>
<g>
	<path class="st0" d="M531.46-62.01l-20.45-13.58c0.82-0.79,1.33-1.89,1.33-3.11c0-2.12-1.54-3.89-3.56-4.24v-1.53h1.75l2.61-3.79
		v-5.33h-10.56v5.33l2.61,3.79h2.12v2.2c0,0.41,0.33,0.74,0.74,0.74c1.56,0,2.82,1.27,2.82,2.83c0,0.92-0.45,1.74-1.14,2.25
		l-1.49-0.99c-0.23-0.16-0.54-0.16-0.77,0l-1.29,0.85c-0.15-0.13-0.29-0.27-0.41-0.44c-0.25-0.33-0.71-0.4-1.04-0.15
		c-0.33,0.24-0.4,0.71-0.15,1.04c0.1,0.14,0.21,0.27,0.33,0.39l-20.67,13.72h-1.98v10.84h51.17v-10.84H531.46z M507.86-76.01
		l0.21,0.14c-0.01,0-0.01,0-0.02,0c-0.12,0-0.23-0.03-0.34-0.04L507.86-76.01z M506.11-74.85c0.59,0.3,1.26,0.46,1.93,0.46
		c0.61,0,1.19-0.13,1.71-0.36l19.18,12.74h-42.17L506.11-74.85z M488.6-53.71c-1.59,0-2.88-1.29-2.88-2.88
		c0-1.59,1.29-2.88,2.88-2.88c1.59,0,2.88,1.29,2.88,2.88C491.48-55,490.19-53.71,488.6-53.71z M496.3-53.71
		c-1.59,0-2.88-1.29-2.88-2.88c0-1.59,1.29-2.88,2.88-2.88c1.59,0,2.88,1.29,2.88,2.88C499.18-55,497.89-53.71,496.3-53.71z
		 M504.01-53.71c-1.59,0-2.88-1.29-2.88-2.88c0-1.59,1.29-2.88,2.88-2.88c1.59,0,2.88,1.29,2.88,2.88
		C506.89-55,505.6-53.71,504.01-53.71z M511.71-53.71c-1.59,0-2.88-1.29-2.88-2.88c0-1.59,1.29-2.88,2.88-2.88
		c1.59,0,2.88,1.29,2.88,2.88C514.59-55,513.3-53.71,511.71-53.71z M519.41-53.71c-1.59,0-2.88-1.29-2.88-2.88
		c0-1.59,1.29-2.88,2.88-2.88c1.59,0,2.88,1.29,2.88,2.88C522.29-55,521-53.71,519.41-53.71z M527.12-53.71
		c-1.59,0-2.88-1.29-2.88-2.88c0-1.59,1.29-2.88,2.88-2.88c1.59,0,2.88,1.29,2.88,2.88C530-55,528.71-53.71,527.12-53.71z"/>
	<defs>
		<filter id="Adobe_OpacityMaskFilter" filterUnits="userSpaceOnUse" x="482.27" y="-51.17" width="51.17" height="42.41">
			<feColorMatrix  type="matrix" values="1 0 0 0 0  0 1 0 0 0  0 0 1 0 0  0 0 0 1 0"/>
		</filter>
	</defs>
	<mask maskUnits="userSpaceOnUse" x="482.27" y="-51.17" width="51.17" height="42.41" id="SVGID_1_">
		<g class="st1">
			
				<linearGradient id="SVGID_00000138575671290604791250000005294833984872669609_" gradientUnits="userSpaceOnUse" x1="509.4072" y1="-17.0958" x2="509.4072" y2="-51.17">
				<stop  offset="0" style="stop-color:#000000"/>
				<stop  offset="0.3726" style="stop-color:#020202"/>
				<stop  offset="0.5069" style="stop-color:#090909"/>
				<stop  offset="0.6026" style="stop-color:#141414"/>
				<stop  offset="0.68" style="stop-color:#252525"/>
				<stop  offset="0.7463" style="stop-color:#3B3B3B"/>
				<stop  offset="0.805" style="stop-color:#575757"/>
				<stop  offset="0.8581" style="stop-color:#777777"/>
				<stop  offset="0.9069" style="stop-color:#9D9D9D"/>
				<stop  offset="0.9523" style="stop-color:#C8C8C8"/>
				<stop  offset="0.9926" style="stop-color:#F6F6F6"/>
				<stop  offset="1" style="stop-color:#FFFFFF"/>
			</linearGradient>
			
				<rect x="466.38" y="-51.17" style="fill:url(#SVGID_00000138575671290604791250000005294833984872669609_);" width="86.06" height="34.07"/>
		</g>
	</mask>
	<path class="st3" d="M533.44-40.33v-10.84h-51.17v10.84h1.98l20.67,13.72c-0.12,0.12-0.23,0.26-0.33,0.39
		c-0.24,0.33-0.17,0.79,0.15,1.04c0.33,0.24,0.79,0.18,1.04-0.15c0.12-0.16,0.26-0.31,0.41-0.44l1.29,0.85
		c0.23,0.16,0.54,0.16,0.77,0l1.49-0.99c0.69,0.52,1.14,1.33,1.14,2.25c0,1.56-1.27,2.83-2.82,2.83c-0.41,0-0.74,0.33-0.74,0.74v2.2
		h-2.12l-2.61,3.79v5.34h10.56v-5.34l-2.61-3.79h-1.75v-1.53c2.02-0.35,3.56-2.12,3.56-4.24c0-1.22-0.51-2.32-1.33-3.11l20.45-13.58
		H533.44z M507.7-26.43c0.11-0.01,0.22-0.04,0.34-0.04c0.01,0,0.01,0,0.02,0l-0.21,0.14L507.7-26.43z M486.77-40.33h42.17
		l-19.18,12.74c-0.53-0.23-1.11-0.36-1.71-0.36c-0.68,0-1.34,0.16-1.93,0.46L486.77-40.33z M491.48-45.75
		c0,1.59-1.29,2.88-2.88,2.88c-1.59,0-2.88-1.29-2.88-2.88c0-1.59,1.29-2.88,2.88-2.88C490.19-48.63,491.48-47.34,491.48-45.75z
		 M499.18-45.75c0,1.59-1.29,2.88-2.88,2.88c-1.59,0-2.88-1.29-2.88-2.88c0-1.59,1.29-2.88,2.88-2.88
		C497.89-48.63,499.18-47.34,499.18-45.75z M506.89-45.75c0,1.59-1.29,2.88-2.88,2.88c-1.59,0-2.88-1.29-2.88-2.88
		c0-1.59,1.29-2.88,2.88-2.88C505.6-48.63,506.89-47.34,506.89-45.75z M514.59-45.75c0,1.59-1.29,2.88-2.88,2.88
		c-1.59,0-2.88-1.29-2.88-2.88c0-1.59,1.29-2.88,2.88-2.88C513.3-48.63,514.59-47.34,514.59-45.75z M522.29-45.75
		c0,1.59-1.29,2.88-2.88,2.88c-1.59,0-2.88-1.29-2.88-2.88c0-1.59,1.29-2.88,2.88-2.88C521-48.63,522.29-47.34,522.29-45.75z
		 M530-45.75c0,1.59-1.29,2.88-2.88,2.88c-1.59,0-2.88-1.29-2.88-2.88c0-1.59,1.29-2.88,2.88-2.88C528.71-48.63,530-47.34,530-45.75
		z"/>
</g>
<g>
	<g>
		<g>
			<path class="st0" d="M588.82-60.84c1.78,0,3.24,1.45,3.24,3.23c0,1.78-1.45,3.24-3.24,3.24c-1.78,0-3.23-1.45-3.23-3.24
				C585.58-59.39,587.03-60.84,588.82-60.84L588.82-60.84z M588.82-63.24c-3.11,0-5.63,2.52-5.63,5.63c0,3.11,2.52,5.63,5.63,5.63
				c3.11,0,5.64-2.52,5.64-5.63C594.45-60.72,591.93-63.24,588.82-63.24L588.82-63.24z"/>
		</g>
		<path class="st0" d="M632.43-73.47h-6.23c-0.26,0-0.51,0.08-0.71,0.23L611.17-62.7h-17.36c-0.27,0-0.53,0.09-0.74,0.25l-4.18,3.26
			c-0.03,0-0.05-0.01-0.08-0.01c-0.51,0-0.95,0.24-1.24,0.61l-4.52,0.87c-0.65,0.12-1.08,0.75-0.95,1.41
			c0.11,0.57,0.61,0.97,1.18,0.97c0.08,0,0.15-0.01,0.23-0.02l4.52-0.87c0.23,0.13,0.5,0.22,0.79,0.22c0.78,0,1.42-0.55,1.56-1.29
			l3.85-3h6.6l3.04,8.6c0.11,0.3,0.37,0.5,0.69,0.53c0.02,0,0.05,0,0.07,0c0.29,0,0.55-0.15,0.7-0.41l4.92-8.72h1.34
			c0.26,0,0.51-0.08,0.71-0.23l14.32-10.54h5.84c0.66,0,1.2-0.54,1.2-1.2C633.63-72.93,633.09-73.47,632.43-73.47z M604.78-53.9
			l-2.26-6.4h5.87L604.78-53.9z"/>
		<path class="st0" d="M618.78-71.7l-32.04-6.28c-0.65-0.13-1.28,0.3-1.41,0.95c-0.13,0.65,0.3,1.28,0.95,1.41l2.32,0.45l5.1,9.71
			c0.33,0.63,1.17,1.14,1.88,1.14h13.9c0.71,0,1.69-0.41,2.19-0.91l4.51-4.53l2.14,0.42c0.08,0.01,0.16,0.02,0.23,0.02
			c0.56,0,1.06-0.4,1.18-0.97C619.86-70.94,619.44-71.57,618.78-71.7z"/>
	</g>
	<defs>
		
			<filter id="Adobe_OpacityMaskFilter_00000045618462351958395970000003885778404358426802_" filterUnits="userSpaceOnUse" x="582.08" y="-51.17" width="51.55" height="26.83">
			<feColorMatrix  type="matrix" values="1 0 0 0 0  0 1 0 0 0  0 0 1 0 0  0 0 0 1 0"/>
		</filter>
	</defs>
	
		<mask maskUnits="userSpaceOnUse" x="582.08" y="-51.17" width="51.55" height="26.83" id="SVGID_00000018210272104129327220000004590145851955570103_">
		<g style="filter:url(#Adobe_OpacityMaskFilter_00000045618462351958395970000003885778404358426802_);">
			
				<linearGradient id="SVGID_00000096770819016986976870000011594600052360711870_" gradientUnits="userSpaceOnUse" x1="610.4099" y1="-17.0958" x2="610.4099" y2="-51.17">
				<stop  offset="0" style="stop-color:#000000"/>
				<stop  offset="0.3726" style="stop-color:#020202"/>
				<stop  offset="0.5069" style="stop-color:#090909"/>
				<stop  offset="0.6026" style="stop-color:#141414"/>
				<stop  offset="0.68" style="stop-color:#252525"/>
				<stop  offset="0.7463" style="stop-color:#3B3B3B"/>
				<stop  offset="0.805" style="stop-color:#575757"/>
				<stop  offset="0.8581" style="stop-color:#777777"/>
				<stop  offset="0.9069" style="stop-color:#9D9D9D"/>
				<stop  offset="0.9523" style="stop-color:#C8C8C8"/>
				<stop  offset="0.9926" style="stop-color:#F6F6F6"/>
				<stop  offset="1" style="stop-color:#FFFFFF"/>
			</linearGradient>
			
				<rect x="567.38" y="-51.17" style="fill:url(#SVGID_00000096770819016986976870000011594600052360711870_);" width="86.06" height="34.07"/>
		</g>
	</mask>
	<g style="opacity:0.5;mask:url(#SVGID_00000018210272104129327220000004590145851955570103_);">
		<g>
			<path class="st0" d="M588.82-41.5c-1.78,0-3.23-1.45-3.23-3.23c0-1.78,1.45-3.24,3.23-3.24c1.78,0,3.24,1.45,3.24,3.24
				C592.05-42.95,590.6-41.5,588.82-41.5L588.82-41.5z M588.82-39.1c3.11,0,5.64-2.52,5.64-5.63c0-3.11-2.52-5.63-5.64-5.63
				c-3.11,0-5.63,2.52-5.63,5.63C583.18-41.62,585.7-39.1,588.82-39.1L588.82-39.1z"/>
		</g>
		<path class="st0" d="M633.63-30.07c0-0.66-0.54-1.2-1.2-1.2h-5.84L612.28-41.8c-0.21-0.15-0.46-0.23-0.71-0.23h-1.34l-4.92-8.72
			c-0.14-0.25-0.41-0.41-0.7-0.41c-0.02,0-0.04,0-0.07,0c-0.31,0.03-0.58,0.23-0.69,0.53l-3.04,8.6h-6.6l-3.85-3
			c-0.14-0.73-0.79-1.29-1.56-1.29c-0.29,0-0.56,0.08-0.79,0.22l-4.52-0.87c-0.08-0.01-0.15-0.02-0.23-0.02
			c-0.56,0-1.07,0.4-1.18,0.97c-0.13,0.65,0.3,1.28,0.95,1.41l4.52,0.87c0.29,0.37,0.74,0.61,1.24,0.61c0.03,0,0.05-0.01,0.08-0.01
			l4.18,3.26c0.21,0.16,0.47,0.25,0.74,0.25h17.36l14.32,10.54c0.21,0.15,0.46,0.23,0.71,0.23h6.23
			C633.09-28.87,633.63-29.41,633.63-30.07z M608.39-42.04h-5.87l2.26-6.4L608.39-42.04z"/>
		<path class="st0" d="M618.78-30.64l-32.04,6.28c-0.65,0.13-1.28-0.3-1.41-0.95c-0.13-0.65,0.3-1.28,0.95-1.41l2.32-0.45l5.1-9.71
			c0.33-0.63,1.17-1.14,1.88-1.14h13.9c0.71,0,1.69,0.41,2.19,0.91l4.51,4.53l2.14-0.42c0.08-0.01,0.16-0.02,0.23-0.02
			c0.56,0,1.06,0.4,1.18,0.97C619.86-31.4,619.44-30.77,618.78-30.64z"/>
	</g>
</g>
<g>
	<g>
		<path class="st0" d="M734.7-69.73l-2.08-9.12c-0.08-0.34-0.43-0.62-0.79-0.62h-22.43c-0.35,0-0.76-0.26-0.92-0.58l-2.87-5.98
			c-0.15-0.32-0.56-0.58-0.92-0.58h-3.62c-0.35,0-0.64,0.29-0.64,0.64v1.39c0,0.35,0.29,0.64,0.64,0.64h1.5
			c0.36,0,0.66,0.29,0.69,0.64l3.05,17.5c0.06,0.35,0.4,0.63,0.75,0.63h24.35l3-3.46C734.66-68.88,734.78-69.38,734.7-69.73z"/>
		<path class="st0" d="M691.66-62.39c-3.1,0-5.61,2.51-5.61,5.61c0,3.1,2.51,5.61,5.61,5.61c3.1,0,5.61-2.51,5.61-5.61
			C697.27-59.88,694.76-62.39,691.66-62.39z M691.66-53.57c-1.77,0-3.21-1.44-3.21-3.21s1.44-3.21,3.21-3.21
			c1.77,0,3.21,1.44,3.21,3.21S693.43-53.57,691.66-53.57z"/>
		<path class="st0" d="M717.59-62.39c-3.1,0-5.61,2.51-5.61,5.61c0,3.1,2.51,5.61,5.61,5.61s5.61-2.51,5.61-5.61
			C723.2-59.88,720.69-62.39,717.59-62.39z M717.59-53.57c-1.77,0-3.21-1.44-3.21-3.21s1.44-3.21,3.21-3.21s3.21,1.44,3.21,3.21
			S719.36-53.57,717.59-53.57z"/>
		<path class="st0" d="M715.13-63.56h-12.81v-17.01c0-0.35-0.29-0.64-0.64-0.64h-13.65c-0.36,0-0.77,0.25-0.94,0.57l-5.81,11.08
			c-0.16,0.31-0.3,0.85-0.3,1.21v10.93c0,0.35,0.29,0.64,0.64,0.64h2.81c0-3.98,3.23-7.21,7.21-7.21c3.98,0,7.21,3.24,7.21,7.21
			h3.45h8.05C710.37-59.9,712.36-62.55,715.13-63.56z M700.4-68.99h-17.24l5.39-10.29h11.85V-68.99z"/>
		<path class="st0" d="M724.8-56.78h5.95c0.35,0,0.64-0.29,0.64-0.64v-6.13h-11.34C722.81-62.55,724.8-59.9,724.8-56.78z"/>
		<path class="st0" d="M719.86-88.2c-2.24,0-7.09,4.64-9.53,7.13h19.05C726.95-83.56,722.1-88.2,719.86-88.2z"/>
	</g>
	<defs>
		
			<filter id="Adobe_OpacityMaskFilter_00000004543212258972772570000013999745910276657581_" filterUnits="userSpaceOnUse" x="680.99" y="-51.17" width="53.73" height="37.03">
			<feColorMatrix  type="matrix" values="1 0 0 0 0  0 1 0 0 0  0 0 1 0 0  0 0 0 1 0"/>
		</filter>
	</defs>
	
		<mask maskUnits="userSpaceOnUse" x="680.99" y="-51.17" width="53.73" height="37.03" id="SVGID_00000054949830172903162170000006215045326594102677_">
		<g style="filter:url(#Adobe_OpacityMaskFilter_00000004543212258972772570000013999745910276657581_);">
			
				<linearGradient id="SVGID_00000138538459210077263230000002539890876043034254_" gradientUnits="userSpaceOnUse" x1="711.4118" y1="-17.0958" x2="711.4118" y2="-51.17">
				<stop  offset="0" style="stop-color:#000000"/>
				<stop  offset="0.3726" style="stop-color:#020202"/>
				<stop  offset="0.5069" style="stop-color:#090909"/>
				<stop  offset="0.6026" style="stop-color:#141414"/>
				<stop  offset="0.68" style="stop-color:#252525"/>
				<stop  offset="0.7463" style="stop-color:#3B3B3B"/>
				<stop  offset="0.805" style="stop-color:#575757"/>
				<stop  offset="0.8581" style="stop-color:#777777"/>
				<stop  offset="0.9069" style="stop-color:#9D9D9D"/>
				<stop  offset="0.9523" style="stop-color:#C8C8C8"/>
				<stop  offset="0.9926" style="stop-color:#F6F6F6"/>
				<stop  offset="1" style="stop-color:#FFFFFF"/>
			</linearGradient>
			
				<rect x="668.38" y="-51.17" style="fill:url(#SVGID_00000138538459210077263230000002539890876043034254_);" width="86.06" height="34.07"/>
		</g>
	</mask>
	<g style="opacity:0.5;mask:url(#SVGID_00000054949830172903162170000006215045326594102677_);">
		<path class="st0" d="M734.7-32.61l-2.08,9.12c-0.08,0.34-0.43,0.62-0.79,0.62h-22.43c-0.35,0-0.76,0.26-0.92,0.58l-2.87,5.98
			c-0.15,0.32-0.56,0.58-0.92,0.58h-3.62c-0.35,0-0.64-0.29-0.64-0.64v-1.39c0-0.35,0.29-0.64,0.64-0.64h1.5
			c0.36,0,0.66-0.29,0.69-0.64l3.05-17.5c0.06-0.35,0.4-0.63,0.75-0.63h24.35l3,3.46C734.66-33.46,734.78-32.96,734.7-32.61z"/>
		<path class="st0" d="M697.27-45.56c0-3.1-2.51-5.61-5.61-5.61c-3.1,0-5.61,2.51-5.61,5.61c0,3.1,2.51,5.61,5.61,5.61
			C694.76-39.95,697.27-42.46,697.27-45.56z M694.87-45.56c0,1.77-1.44,3.21-3.21,3.21c-1.77,0-3.21-1.44-3.21-3.21
			s1.44-3.21,3.21-3.21C693.43-48.77,694.87-47.33,694.87-45.56z"/>
		<path class="st0" d="M723.2-45.56c0-3.1-2.51-5.61-5.61-5.61s-5.61,2.51-5.61,5.61c0,3.1,2.51,5.61,5.61,5.61
			S723.2-42.46,723.2-45.56z M720.8-45.56c0,1.77-1.44,3.21-3.21,3.21s-3.21-1.44-3.21-3.21s1.44-3.21,3.21-3.21
			S720.8-47.33,720.8-45.56z"/>
		<path class="st0" d="M710.37-45.56h-8.05h-3.45c0,3.98-3.24,7.21-7.21,7.21c-3.98,0-7.21-3.24-7.21-7.21h-2.81
			c-0.35,0-0.64,0.29-0.64,0.64v10.93c0,0.35,0.13,0.89,0.3,1.21l5.81,11.08c0.16,0.31,0.58,0.57,0.94,0.57h13.65
			c0.35,0,0.64-0.29,0.64-0.64v-17.01h12.81C712.36-39.79,710.37-42.44,710.37-45.56z M700.4-23.05h-11.85l-5.39-10.29h17.24V-23.05
			z"/>
		<path class="st0" d="M724.8-45.56h5.95c0.35,0,0.64,0.29,0.64,0.64v6.13h-11.34C722.81-39.79,724.8-42.44,724.8-45.56z"/>
		<path class="st0" d="M719.86-14.14c-2.24,0-7.09-4.64-9.53-7.13h19.05C726.95-18.78,722.1-14.14,719.86-14.14z"/>
	</g>
</g>
<g>
	<path class="st0" d="M624.76,13.73l-14.68-6.25c0.48-0.52,0.79-1.21,0.79-1.98c0-1.44-1.05-2.65-2.43-2.89V1.58h1.19L611.4-1v-3.63
		h-7.19V-1l1.78,2.58h1.44v1.5c0,0.28,0.23,0.5,0.5,0.5c1.06,0,1.92,0.86,1.92,1.92c0,0.64-0.31,1.2-0.79,1.55l-1.31-0.56
		c-0.1-0.04-0.22-0.04-0.32,0l-0.85,0.37c-0.07-0.07-0.14-0.13-0.2-0.21c-0.17-0.22-0.48-0.27-0.7-0.1
		c-0.22,0.17-0.27,0.48-0.11,0.7c0.01,0.02,0.03,0.03,0.04,0.04l-14.79,6.44h-2.43v39.45h38.82V13.73H624.76z M607.6,7.3l0.29,0.12
		c-0.15,0-0.3-0.02-0.44-0.06L607.6,7.3z M606.25,7.89c0.49,0.34,1.07,0.55,1.68,0.55c0.52,0,1-0.15,1.43-0.39l13.35,5.68h-29.88
		L606.25,7.89z M606.29,45.98h-12.29V19.33h12.29V45.98z M621.61,45.98h-12.29V30.54h12.29V45.98z M621.61,27.51h-12.29v-8.17h12.29
		V27.51z"/>
	<defs>
		
			<filter id="Adobe_OpacityMaskFilter_00000039830804287827484940000002015603174867712946_" filterUnits="userSpaceOnUse" x="588.4" y="53.18" width="38.82" height="57.81">
			<feColorMatrix  type="matrix" values="1 0 0 0 0  0 1 0 0 0  0 0 1 0 0  0 0 0 1 0"/>
		</filter>
	</defs>
	
		<mask maskUnits="userSpaceOnUse" x="588.4" y="53.18" width="38.82" height="57.81" id="SVGID_00000015340174818155972320000015110137730142774932_">
		<g style="filter:url(#Adobe_OpacityMaskFilter_00000039830804287827484940000002015603174867712946_);">
			
				<linearGradient id="SVGID_00000035490387879538472410000000473114162249448346_" gradientUnits="userSpaceOnUse" x1="610.4099" y1="87.2548" x2="610.4099" y2="53.1801">
				<stop  offset="0" style="stop-color:#000000"/>
				<stop  offset="0.3726" style="stop-color:#020202"/>
				<stop  offset="0.5069" style="stop-color:#090909"/>
				<stop  offset="0.6026" style="stop-color:#141414"/>
				<stop  offset="0.68" style="stop-color:#252525"/>
				<stop  offset="0.7463" style="stop-color:#3B3B3B"/>
				<stop  offset="0.805" style="stop-color:#575757"/>
				<stop  offset="0.8581" style="stop-color:#777777"/>
				<stop  offset="0.9069" style="stop-color:#9D9D9D"/>
				<stop  offset="0.9523" style="stop-color:#C8C8C8"/>
				<stop  offset="0.9926" style="stop-color:#F6F6F6"/>
				<stop  offset="1" style="stop-color:#FFFFFF"/>
			</linearGradient>
			
				<rect x="567.38" y="53.18" style="fill:url(#SVGID_00000035490387879538472410000000473114162249448346_);" width="86.06" height="34.07"/>
		</g>
	</mask>
	<path style="opacity:0.5;mask:url(#SVGID_00000015340174818155972320000015110137730142774932_);fill:#333333;" d="M627.22,92.63
		V53.18H588.4v39.45h2.43l14.79,6.44c-0.01,0.01-0.03,0.03-0.04,0.04c-0.17,0.22-0.12,0.54,0.11,0.7c0.22,0.17,0.54,0.12,0.7-0.1
		c0.06-0.08,0.13-0.15,0.2-0.21l0.85,0.37c0.1,0.04,0.21,0.04,0.32,0l1.31-0.56c0.48,0.35,0.79,0.91,0.79,1.55
		c0,1.06-0.86,1.92-1.92,1.92c-0.28,0-0.5,0.23-0.5,0.5v1.5h-1.44l-1.78,2.58v3.63h7.19v-3.63l-1.78-2.58h-1.19v-1.04
		c1.38-0.24,2.43-1.44,2.43-2.89c0-0.77-0.3-1.46-0.79-1.98l14.68-6.25H627.22z M607.45,98.99c0.14-0.04,0.29-0.06,0.44-0.06
		l-0.29,0.12L607.45,98.99z M592.83,92.63h29.88l-13.35,5.68c-0.42-0.24-0.91-0.39-1.43-0.39c-0.61,0-1.19,0.21-1.68,0.55
		L592.83,92.63z M606.29,87.03h-12.29V60.38h12.29V87.03z M621.61,75.82h-12.29V60.38h12.29V75.82z M621.61,87.03h-12.29v-8.17
		h12.29V87.03z"/>
</g>
<g>
	<g>
		<path class="st0" d="M692.2,51.73c0.38,0.8,1.4,1.45,2.29,1.45h26.74c0.88,0,1.91-0.65,2.29-1.45l6.75-14.24h-44.8L692.2,51.73z"
			/>
		<path class="st0" d="M732.36,33.5h-7.87v-2.81c0-1.2-0.97-2.17-2.17-2.17c-0.1,0-0.2,0.02-0.31,0.03l-12.48-18.52
			c1.3-0.58,2.21-1.88,2.21-3.39c0-1.83-1.33-3.36-3.08-3.67V1.65h1.51l2.25-3.27v-4.61h-9.12v4.61l2.25,3.27h1.83v1.9
			c0,0.35,0.29,0.64,0.64,0.64c1.34,0,2.44,1.1,2.44,2.44c0,1.07-0.7,1.98-1.67,2.3l-0.6-0.89c-0.15-0.22-0.51-0.22-0.66,0
			l-0.54,0.8c-0.36-0.17-0.68-0.42-0.93-0.75c-0.21-0.29-0.61-0.34-0.89-0.13c-0.28,0.21-0.34,0.61-0.13,0.9
			c0.33,0.44,0.76,0.8,1.24,1.06L693.7,28.55c-0.1-0.01-0.2-0.03-0.3-0.03c-1.2,0-2.17,0.97-2.17,2.17v2.81h-7.87
			c-0.66,0-1.2,0.54-1.2,1.2c0,0.66,0.54,1.2,1.2,1.2h7.87v1.21h0.8V35.9h2.74v1.21h0.8V35.9h24.58v1.21h0.8V35.9h2.74v1.21h0.8
			V35.9h7.87c0.66,0,1.2-0.54,1.2-1.2C733.56,34.03,733.02,33.5,732.36,33.5z M707.86,8.98l0.05,0.08c-0.03,0-0.07-0.01-0.1-0.01
			L707.86,8.98z M692.03,33.5v-2.81c0-0.68,0.5-1.24,1.14-1.35l-0.1,0.15c-0.12,0.18-0.08,0.43,0.11,0.56
			c0.18,0.12,0.43,0.08,0.56-0.11l0.31-0.46c0.43,0.23,0.73,0.68,0.73,1.2v2.81H692.03z M695.57,33.5v-2.81
			c0-0.8-0.44-1.49-1.08-1.87l12.54-18.6c0.32,0.09,0.65,0.14,0.99,0.14c0.24,0,0.48-0.03,0.71-0.07l12.5,18.54
			c-0.64,0.38-1.08,1.07-1.08,1.87v2.81H695.57z M720.95,33.5v-2.81c0-0.52,0.3-0.97,0.73-1.2l0.31,0.46
			c0.08,0.11,0.2,0.18,0.33,0.18c0.08,0,0.16-0.02,0.22-0.07c0.18-0.12,0.23-0.37,0.11-0.56l-0.1-0.15
			c0.65,0.11,1.14,0.67,1.14,1.35v2.81H720.95z"/>
	</g>
	<defs>
		
			<filter id="Adobe_OpacityMaskFilter_00000105405212991080643930000000592328673847317645_" filterUnits="userSpaceOnUse" x="682.16" y="53.18" width="51.4" height="59.41">
			<feColorMatrix  type="matrix" values="1 0 0 0 0  0 1 0 0 0  0 0 1 0 0  0 0 0 1 0"/>
		</filter>
	</defs>
	
		<mask maskUnits="userSpaceOnUse" x="682.16" y="53.18" width="51.4" height="59.41" id="SVGID_00000110450105040331992280000017955286212276179893_">
		<g style="filter:url(#Adobe_OpacityMaskFilter_00000105405212991080643930000000592328673847317645_);">
			
				<linearGradient id="SVGID_00000067216845458223699220000006375327442932820409_" gradientUnits="userSpaceOnUse" x1="711.4118" y1="87.2548" x2="711.4118" y2="53.1801">
				<stop  offset="0" style="stop-color:#000000"/>
				<stop  offset="0.3726" style="stop-color:#020202"/>
				<stop  offset="0.5069" style="stop-color:#090909"/>
				<stop  offset="0.6026" style="stop-color:#141414"/>
				<stop  offset="0.68" style="stop-color:#252525"/>
				<stop  offset="0.7463" style="stop-color:#3B3B3B"/>
				<stop  offset="0.805" style="stop-color:#575757"/>
				<stop  offset="0.8581" style="stop-color:#777777"/>
				<stop  offset="0.9069" style="stop-color:#9D9D9D"/>
				<stop  offset="0.9523" style="stop-color:#C8C8C8"/>
				<stop  offset="0.9926" style="stop-color:#F6F6F6"/>
				<stop  offset="1" style="stop-color:#FFFFFF"/>
			</linearGradient>
			
				<rect x="668.38" y="53.18" style="fill:url(#SVGID_00000067216845458223699220000006375327442932820409_);" width="86.06" height="34.07"/>
		</g>
	</mask>
	<g style="opacity:0.5;mask:url(#SVGID_00000110450105040331992280000017955286212276179893_);">
		<path class="st0" d="M692.2,54.63c0.38-0.8,1.4-1.45,2.29-1.45h26.74c0.88,0,1.91,0.65,2.29,1.45l6.75,14.24h-44.8L692.2,54.63z"
			/>
		<path class="st0" d="M733.56,71.66c0-0.66-0.54-1.2-1.2-1.2h-7.87v-1.21h-0.8v1.21h-2.74v-1.21h-0.8v1.21h-24.58v-1.21h-0.8v1.21
			h-2.74v-1.21h-0.8v1.21h-7.87c-0.66,0-1.2,0.54-1.2,1.2c0,0.66,0.54,1.2,1.2,1.2h7.87v2.81c0,1.2,0.97,2.17,2.17,2.17
			c0.1,0,0.2-0.02,0.3-0.03l12.56,18.64c-0.48,0.26-0.91,0.61-1.24,1.06c-0.21,0.28-0.15,0.68,0.13,0.9
			c0.28,0.21,0.68,0.16,0.89-0.13c0.25-0.33,0.57-0.58,0.93-0.75l0.54,0.8c0.15,0.22,0.51,0.22,0.66,0l0.6-0.89
			c0.96,0.33,1.67,1.23,1.67,2.3c0,1.35-1.1,2.44-2.44,2.44c-0.35,0-0.64,0.29-0.64,0.64v1.9h-1.83l-2.25,3.27v4.61h9.12v-4.61
			l-2.25-3.27h-1.51v-1.32c1.75-0.3,3.08-1.83,3.08-3.67c0-1.51-0.91-2.81-2.21-3.39l12.48-18.52c0.1,0.01,0.2,0.03,0.31,0.03
			c1.2,0,2.17-0.97,2.17-2.17v-2.81h7.87C733.02,72.86,733.56,72.33,733.56,71.66z M707.81,97.31c0.03,0,0.07-0.01,0.1-0.01
			l-0.05,0.08L707.81,97.31z M694.77,72.86v2.81c0,0.52-0.3,0.97-0.73,1.2l-0.31-0.46c-0.12-0.18-0.37-0.23-0.56-0.11
			c-0.18,0.12-0.23,0.37-0.11,0.55l0.1,0.15c-0.65-0.11-1.14-0.67-1.14-1.35v-2.81H694.77z M720.15,72.86v2.81
			c0,0.8,0.44,1.49,1.08,1.87l-12.5,18.54c-0.23-0.04-0.47-0.07-0.71-0.07c-0.34,0-0.67,0.05-0.99,0.14l-12.54-18.6
			c0.64-0.38,1.08-1.07,1.08-1.87v-2.81H720.15z M723.69,72.86v2.81c0,0.68-0.5,1.24-1.14,1.35l0.1-0.15
			c0.12-0.18,0.08-0.43-0.11-0.55c-0.07-0.05-0.15-0.07-0.22-0.07c-0.13,0-0.25,0.06-0.33,0.18l-0.31,0.46
			c-0.43-0.23-0.73-0.68-0.73-1.2v-2.81H723.69z"/>
	</g>
</g>
<g>
	<g>
		<path class="st0" d="M390.65,41.95c-3.1,0-5.61,2.51-5.61,5.61c0,3.1,2.51,5.61,5.61,5.61c3.1,0,5.61-2.51,5.61-5.61
			C396.26,44.47,393.75,41.95,390.65,41.95z M390.65,50.78c-1.77,0-3.21-1.44-3.21-3.21s1.44-3.21,3.21-3.21
			c1.77,0,3.21,1.44,3.21,3.21S392.42,50.78,390.65,50.78z"/>
		<path class="st0" d="M416.58,41.95c-3.1,0-5.61,2.51-5.61,5.61c0,3.1,2.51,5.61,5.61,5.61c3.1,0,5.61-2.51,5.61-5.61
			C422.2,44.47,419.68,41.95,416.58,41.95z M416.58,50.78c-1.77,0-3.21-1.44-3.21-3.21s1.44-3.21,3.21-3.21
			c1.77,0,3.21,1.44,3.21,3.21S418.35,50.78,416.58,50.78z"/>
		<path class="st0" d="M414.13,40.79h-12.81V23.79c0-0.35-0.29-0.64-0.64-0.64h-13.65c-0.35,0-0.77,0.25-0.94,0.57l-5.81,11.08
			c-0.16,0.31-0.3,0.85-0.3,1.21v10.93c0,0.35,0.29,0.64,0.64,0.64h2.81c0-3.98,3.24-7.21,7.21-7.21c3.98,0,7.21,3.24,7.21,7.21
			h3.45h8.05C409.37,44.45,411.36,41.8,414.13,40.79z M399.4,35.36h-17.25l5.39-10.29h11.85V35.36z"/>
		<path class="st0" d="M429.74,40.79h-10.7c2.77,1.01,4.76,3.66,4.76,6.77h5.94c0.35,0,0.64-0.29,0.64-0.64v-5.49
			C430.38,41.08,430.09,40.79,429.74,40.79z"/>
		<polygon class="st0" points="412.95,39.05 422.74,35.84 418.48,19.96 408.41,22.07 412.95,39.05 		"/>
		<path class="st0" d="M404.9,37.93c0.09,0.34,0.45,0.65,0.8,0.68l6.01,0.58l-0.04,0l-4.44-16.59l-4.88,3.48
			c-0.29,0.21-0.45,0.65-0.36,0.99L404.9,37.93z"/>
		<path class="st0" d="M434.09,28.34c0.29-0.2,0.46-0.64,0.36-0.98l-1.59-5.92c-0.09-0.34-0.45-0.64-0.8-0.66l-12.28-0.9l4.12,15.38
			L434.09,28.34z"/>
		<path class="st0" d="M437.95,27.83l-1.82-5.86l-0.77,0.21l1.29,5.74l-2.34,4.87l-8.07,3.83h-1.53c-0.42,0.27-1.02,0.57-1.48,0.72
			l-5.6,1.84h13.71v-1.58l4.52-2.74l0.5-0.3l0.1-0.39l1.49-5.97l0.06-0.24L437.95,27.83z"/>
	</g>
	<defs>
		
			<filter id="Adobe_OpacityMaskFilter_00000167370938411266778680000008927145262800195238_" filterUnits="userSpaceOnUse" x="379.98" y="53.18" width="58.01" height="33.31">
			<feColorMatrix  type="matrix" values="1 0 0 0 0  0 1 0 0 0  0 0 1 0 0  0 0 0 1 0"/>
		</filter>
	</defs>
	
		<mask maskUnits="userSpaceOnUse" x="379.98" y="53.18" width="58.01" height="33.31" id="SVGID_00000118358362475004581360000000221876021739710390_">
		<g style="filter:url(#Adobe_OpacityMaskFilter_00000167370938411266778680000008927145262800195238_);">
			
				<linearGradient id="SVGID_00000127039628969130987970000013057609627191845036_" gradientUnits="userSpaceOnUse" x1="408.4048" y1="87.2548" x2="408.4048" y2="53.1801">
				<stop  offset="0" style="stop-color:#000000"/>
				<stop  offset="0.3726" style="stop-color:#020202"/>
				<stop  offset="0.5069" style="stop-color:#090909"/>
				<stop  offset="0.6026" style="stop-color:#141414"/>
				<stop  offset="0.68" style="stop-color:#252525"/>
				<stop  offset="0.7463" style="stop-color:#3B3B3B"/>
				<stop  offset="0.805" style="stop-color:#575757"/>
				<stop  offset="0.8581" style="stop-color:#777777"/>
				<stop  offset="0.9069" style="stop-color:#9D9D9D"/>
				<stop  offset="0.9523" style="stop-color:#C8C8C8"/>
				<stop  offset="0.9926" style="stop-color:#F6F6F6"/>
				<stop  offset="1" style="stop-color:#FFFFFF"/>
			</linearGradient>
			
				<rect x="365.37" y="53.18" style="fill:url(#SVGID_00000127039628969130987970000013057609627191845036_);" width="86.06" height="34.07"/>
		</g>
	</mask>
	<g style="opacity:0.5;mask:url(#SVGID_00000118358362475004581360000000221876021739710390_);">
		<path class="st0" d="M396.26,58.79c0-3.1-2.51-5.61-5.61-5.61c-3.1,0-5.61,2.51-5.61,5.61c0,3.1,2.51,5.61,5.61,5.61
			C393.75,64.41,396.26,61.89,396.26,58.79z M393.86,58.79c0,1.77-1.44,3.21-3.21,3.21c-1.77,0-3.21-1.44-3.21-3.21
			s1.44-3.21,3.21-3.21C392.42,55.58,393.86,57.02,393.86,58.79z"/>
		<path class="st0" d="M422.2,58.79c0-3.1-2.51-5.61-5.61-5.61c-3.1,0-5.61,2.51-5.61,5.61c0,3.1,2.51,5.61,5.61,5.61
			C419.68,64.41,422.2,61.89,422.2,58.79z M419.79,58.79c0,1.77-1.44,3.21-3.21,3.21c-1.77,0-3.21-1.44-3.21-3.21
			s1.44-3.21,3.21-3.21C418.35,55.58,419.79,57.02,419.79,58.79z"/>
		<path class="st0" d="M409.37,58.79h-8.05h-3.45c0,3.98-3.24,7.21-7.21,7.21c-3.98,0-7.21-3.24-7.21-7.21h-2.81
			c-0.35,0-0.64,0.29-0.64,0.64v10.93c0,0.35,0.13,0.89,0.3,1.21l5.81,11.08c0.16,0.31,0.58,0.57,0.94,0.57h13.65
			c0.35,0,0.64-0.29,0.64-0.64V65.57h12.81C411.36,64.56,409.37,61.91,409.37,58.79z M399.4,81.29h-11.85L382.15,71h17.25V81.29z"/>
		<path class="st0" d="M429.74,65.57h-10.7c2.77-1.01,4.76-3.66,4.76-6.77h5.94c0.35,0,0.64,0.29,0.64,0.64v5.49
			C430.38,65.28,430.09,65.57,429.74,65.57z"/>
		<polygon class="st0" points="412.95,67.31 422.74,70.52 418.48,86.4 408.41,84.29 412.95,67.31 		"/>
		<path class="st0" d="M404.9,68.43c0.09-0.34,0.45-0.65,0.8-0.68l6.01-0.58l-0.04,0l-4.44,16.59l-4.88-3.48
			c-0.29-0.2-0.45-0.65-0.36-0.99L404.9,68.43z"/>
		<path class="st0" d="M434.09,78.02c0.29,0.2,0.46,0.64,0.36,0.98l-1.59,5.92c-0.09,0.34-0.45,0.64-0.8,0.67l-12.28,0.9l4.12-15.38
			L434.09,78.02z"/>
		<path class="st0" d="M437.95,78.53l-1.82,5.86l-0.77-0.21l1.29-5.74l-2.34-4.87l-8.07-3.83h-1.53c-0.42-0.27-1.02-0.57-1.48-0.72
			l-5.6-1.84h13.71v1.58l4.52,2.74l0.5,0.3l0.1,0.39l1.49,5.97l0.06,0.24L437.95,78.53z"/>
	</g>
</g>
<g>
	<g>
		<path class="st0" d="M510.78,27.55c0.68-2.52,2.35-4.03,4.46-4.03c1.33,0,2.66,0.63,3.85,1.81l1.43,1.43
			c0.06-0.66,0.34-1.26,0.81-1.73l3.5-3.5c0.02-0.14,0.05-0.28,0.08-0.43h-15.97v9.08h1.13L510.78,27.55z"/>
		<rect x="489.07" y="21.12" class="st0" width="17.46" height="9.08"/>
		<polygon class="st0" points="499.13,32.61 499.13,41.7 506.95,41.7 509.41,32.61 		"/>
		<path class="st0" d="M506.35,44.1h-17.27v9.08h17.46v-6.41C506.26,45.98,506.19,45.07,506.35,44.1z"/>
		<rect x="479.27" y="32.61" class="st0" width="17.46" height="9.08"/>
		<path class="st0" d="M527.2,32.61l-0.42,0.42l3.74,3.74c1.5,1.5,2.11,3.28,1.68,4.9c0,0.01-0.01,0.02-0.01,0.03h4.26v-9.08H527.2z
			"/>
		<path class="st0" d="M510.73,49.6c-0.65,0-1.26-0.12-1.8-0.33v3.91h17.46V45.6l-13.82,3.74C511.94,49.51,511.32,49.6,510.73,49.6z
			"/>
		<path class="st0" d="M525.32,33.84l-3.86,3.86c-0.23,0.23-0.54,0.35-0.85,0.35c-0.31,0-0.61-0.12-0.85-0.35
			c-0.15-0.15-0.23-0.33-0.29-0.51c0.11,0.03,0.22,0.07,0.33,0.07c0.31,0,0.61-0.12,0.85-0.35l6.26-6.26c0.47-0.47,0.47-1.23,0-1.7
			L525,27.02l3.12-3.12c0.09,0.01,0.18,0.03,0.28,0.03c0.51,0,1.02-0.2,1.41-0.59l4.7-4.7c0.78-0.78,0.78-2.05,0-2.83
			c-0.78-0.78-2.05-0.78-2.83,0l-4.7,4.7c-0.46,0.46-0.64,1.09-0.56,1.69l-3.97,3.97c-0.47,0.47-0.47,1.23,0,1.7l1.92,1.92
			l-1.55,1.55l-4.87-4.87c-2.27-2.27-4.79-1.6-5.63,1.5l-4.26,15.73c-0.84,3.1,0.99,4.93,4.09,4.09l15.73-4.26
			c3.1-0.84,3.77-3.36,1.5-5.63L525.32,33.84z"/>
	</g>
	<defs>
		
			<filter id="Adobe_OpacityMaskFilter_00000109009802410925418550000016459910565238233774_" filterUnits="userSpaceOnUse" x="479.27" y="53.18" width="57.17" height="37.95">
			<feColorMatrix  type="matrix" values="1 0 0 0 0  0 1 0 0 0  0 0 1 0 0  0 0 0 1 0"/>
		</filter>
	</defs>
	
		<mask maskUnits="userSpaceOnUse" x="479.27" y="53.18" width="57.17" height="37.95" id="SVGID_00000009561956888838989250000014645188740936174471_">
		<g style="filter:url(#Adobe_OpacityMaskFilter_00000109009802410925418550000016459910565238233774_);">
			
				<linearGradient id="SVGID_00000158722533834274219800000005949886863141667489_" gradientUnits="userSpaceOnUse" x1="509.4072" y1="87.2548" x2="509.4072" y2="53.1801">
				<stop  offset="0" style="stop-color:#000000"/>
				<stop  offset="0.3726" style="stop-color:#020202"/>
				<stop  offset="0.5069" style="stop-color:#090909"/>
				<stop  offset="0.6026" style="stop-color:#141414"/>
				<stop  offset="0.68" style="stop-color:#252525"/>
				<stop  offset="0.7463" style="stop-color:#3B3B3B"/>
				<stop  offset="0.805" style="stop-color:#575757"/>
				<stop  offset="0.8581" style="stop-color:#777777"/>
				<stop  offset="0.9069" style="stop-color:#9D9D9D"/>
				<stop  offset="0.9523" style="stop-color:#C8C8C8"/>
				<stop  offset="0.9926" style="stop-color:#F6F6F6"/>
				<stop  offset="1" style="stop-color:#FFFFFF"/>
			</linearGradient>
			
				<rect x="466.38" y="53.18" style="fill:url(#SVGID_00000158722533834274219800000005949886863141667489_);" width="86.06" height="34.07"/>
		</g>
	</mask>
	<g style="opacity:0.5;mask:url(#SVGID_00000009561956888838989250000014645188740936174471_);">
		<path class="st0" d="M510.78,78.81c0.68,2.52,2.35,4.03,4.46,4.03c1.33,0,2.66-0.63,3.85-1.81l1.43-1.43
			c0.06,0.66,0.34,1.26,0.81,1.73l3.5,3.5c0.02,0.14,0.05,0.28,0.08,0.42h-15.97v-9.08h1.13L510.78,78.81z"/>
		<rect x="489.07" y="76.16" class="st0" width="17.46" height="9.08"/>
		<polygon class="st0" points="499.13,73.75 499.13,64.66 506.95,64.66 509.41,73.75 		"/>
		<path class="st0" d="M506.35,62.26h-17.27v-9.08h17.46v6.41C506.26,60.38,506.19,61.29,506.35,62.26z"/>
		<rect x="479.27" y="64.66" class="st0" width="17.46" height="9.08"/>
		<path class="st0" d="M527.2,73.75l-0.42-0.42l3.74-3.73c1.5-1.5,2.11-3.28,1.68-4.9c0-0.01-0.01-0.02-0.01-0.03h4.26v9.08H527.2z"
			/>
		<path class="st0" d="M510.73,56.76c-0.65,0-1.26,0.12-1.8,0.33v-3.91h17.46v7.58l-13.82-3.74
			C511.94,56.85,511.32,56.76,510.73,56.76z"/>
		<g>
			<path class="st0" d="M525.32,72.52l-3.86-3.86c-0.23-0.23-0.54-0.35-0.85-0.35c-0.31,0-0.61,0.12-0.85,0.35
				c-0.15,0.15-0.23,0.33-0.29,0.51c0.11-0.03,0.22-0.07,0.33-0.07c0.31,0,0.61,0.12,0.85,0.35l6.26,6.26c0.47,0.47,0.47,1.23,0,1.7
				L525,79.34l3.12,3.12c0.09-0.01,0.18-0.03,0.28-0.03c0.51,0,1.02,0.2,1.41,0.59l4.7,4.7c0.78,0.78,0.78,2.05,0,2.83
				c-0.78,0.78-2.05,0.78-2.83,0l-4.7-4.7c-0.46-0.46-0.64-1.09-0.56-1.69l-3.97-3.97c-0.47-0.47-0.47-1.23,0-1.7l1.92-1.92
				l-1.55-1.55l-4.87,4.87c-2.27,2.27-4.79,1.6-5.63-1.5l-4.26-15.73c-0.84-3.1,0.99-4.93,4.09-4.09l15.73,4.26
				c3.1,0.84,3.77,3.36,1.5,5.63L525.32,72.52z"/>
		</g>
	</g>
</g>
<g>
	<g>
		<path class="st0" d="M624.27,134.4c-1.22-1.96-5.07-4.14-11.44-6.47l-0.41-4.06c2.32-1.82,3.9-4.89,4.39-8.45
			c-0.47,0.12-1.03,0.23-1.68,0.33c-0.54,3.05-1.99,5.67-4.01,7.09c-0.24,0.17-0.37,0.45-0.34,0.74l0.46,4.55
			c-0.1,0.06-0.21,0.13-0.31,0.18c-0.08,0.04-0.17,0.09-0.26,0.13c-0.24,0.11-0.49,0.21-0.74,0.29c-0.05,0.02-0.1,0.04-0.15,0.05
			c-1.28,0.38-2.66,0.38-3.94,0c-0.06-0.02-0.12-0.04-0.18-0.06c-0.24-0.08-0.48-0.17-0.71-0.28c-0.09-0.04-0.18-0.09-0.28-0.14
			c-0.1-0.05-0.2-0.12-0.3-0.18l0.46-4.55c0.03-0.29-0.1-0.57-0.34-0.74c-2.01-1.41-3.46-4.04-4-7.09c-0.66-0.1-1.21-0.21-1.68-0.33
			c0.49,3.56,2.06,6.62,4.39,8.44l-0.41,4.06c-6.37,2.34-10.22,4.52-11.44,6.47c-1.53,2.46-0.26,10.37-0.11,11.26l0.11,0.67h32.92
			l0.11-0.67C624.53,144.77,625.8,136.86,624.27,134.4z M600.29,135.82l-1.61-4.5c1.37-0.62,2.94-1.26,4.68-1.91
			c0.02,0.01,0.04,0.02,0.05,0.03c0.31,0.19,0.63,0.36,0.97,0.51c0.01,0,0.02,0.01,0.03,0.01c1.06,0.47,2.21,0.72,3.38,0.72
			c1.18,0,2.32-0.25,3.38-0.72c0.01,0,0.02-0.01,0.03-0.02c0.33-0.15,0.65-0.32,0.96-0.51c0.02-0.01,0.04-0.02,0.05-0.03
			c1.74,0.64,3.31,1.28,4.68,1.9l-1.61,4.5H600.29z M592.7,135.25c0.48-0.77,1.66-1.67,3.41-2.64l1.61,4.49v7.63h-5.01
			C592.22,141.52,591.85,136.62,592.7,135.25z M622.91,144.73h-5.01v-7.63l1.61-4.49c1.75,0.97,2.92,1.87,3.4,2.64
			C623.76,136.62,623.39,141.52,622.91,144.73z"/>
		<path class="st0" d="M607.81,114.57c5.58,0,10.09-0.65,10.09-1.45c0-0.18-0.23-0.35-0.64-0.51v-1.68c0-5.22-4.23-9.45-9.45-9.45
			c-5.22,0-9.45,4.23-9.45,9.45v1.68c-0.41,0.16-0.64,0.33-0.64,0.51C597.71,113.92,602.23,114.57,607.81,114.57z"/>
	</g>
	<defs>
		
			<filter id="Adobe_OpacityMaskFilter_00000057121324877120944570000002614471760535803785_" filterUnits="userSpaceOnUse" x="590.59" y="146.33" width="34.42" height="44.85">
			<feColorMatrix  type="matrix" values="1 0 0 0 0  0 1 0 0 0  0 0 1 0 0  0 0 0 1 0"/>
		</filter>
	</defs>
	
		<mask maskUnits="userSpaceOnUse" x="590.59" y="146.33" width="34.42" height="44.85" id="SVGID_00000137813428075959176030000003393595907664218011_">
		<g style="filter:url(#Adobe_OpacityMaskFilter_00000057121324877120944570000002614471760535803785_);">
			
				<linearGradient id="SVGID_00000092438797650607760540000013504831209649233798_" gradientUnits="userSpaceOnUse" x1="610.4099" y1="180.4042" x2="610.4099" y2="146.33">
				<stop  offset="0" style="stop-color:#000000"/>
				<stop  offset="0.3726" style="stop-color:#020202"/>
				<stop  offset="0.5069" style="stop-color:#090909"/>
				<stop  offset="0.6026" style="stop-color:#141414"/>
				<stop  offset="0.68" style="stop-color:#252525"/>
				<stop  offset="0.7463" style="stop-color:#3B3B3B"/>
				<stop  offset="0.805" style="stop-color:#575757"/>
				<stop  offset="0.8581" style="stop-color:#777777"/>
				<stop  offset="0.9069" style="stop-color:#9D9D9D"/>
				<stop  offset="0.9523" style="stop-color:#C8C8C8"/>
				<stop  offset="0.9926" style="stop-color:#F6F6F6"/>
				<stop  offset="1" style="stop-color:#FFFFFF"/>
			</linearGradient>
			
				<rect x="567.38" y="146.33" style="fill:url(#SVGID_00000092438797650607760540000013504831209649233798_);" width="86.06" height="34.07"/>
		</g>
	</mask>
	<g style="opacity:0.5;mask:url(#SVGID_00000137813428075959176030000003393595907664218011_);">
		<path class="st0" d="M624.38,147l-0.11-0.67h-32.92l-0.11,0.67c-0.15,0.89-1.42,8.8,0.11,11.26c1.22,1.95,5.07,4.13,11.44,6.47
			l0.41,4.06c-2.32,1.82-3.9,4.88-4.39,8.44c0.47-0.12,1.03-0.23,1.68-0.33c0.54-3.05,1.99-5.67,4-7.09
			c0.24-0.17,0.37-0.45,0.34-0.74l-0.46-4.55c0.1-0.06,0.2-0.12,0.3-0.18c0.09-0.05,0.18-0.1,0.28-0.14
			c0.23-0.11,0.47-0.2,0.71-0.28c0.06-0.02,0.12-0.04,0.18-0.06c1.28-0.38,2.66-0.38,3.94,0c0.05,0.01,0.1,0.03,0.15,0.05
			c0.25,0.08,0.5,0.18,0.74,0.29c0.09,0.04,0.17,0.08,0.26,0.13c0.11,0.05,0.21,0.12,0.31,0.18l-0.46,4.55
			c-0.03,0.29,0.1,0.57,0.34,0.74c2.01,1.41,3.46,4.04,4.01,7.09c0.66,0.1,1.21,0.21,1.68,0.33c-0.48-3.56-2.06-6.62-4.39-8.45
			l0.41-4.06c6.37-2.34,10.22-4.52,11.44-6.47C625.8,155.8,624.53,147.89,624.38,147z M615.32,156.84l1.61,4.5
			c-1.37,0.62-2.94,1.26-4.68,1.9c-0.02-0.01-0.04-0.02-0.05-0.03c-0.31-0.19-0.63-0.36-0.96-0.51c-0.01-0.01-0.02-0.01-0.03-0.02
			c-1.06-0.47-2.21-0.72-3.38-0.72c-1.18,0-2.32,0.25-3.38,0.72c-0.01,0-0.02,0.01-0.03,0.01c-0.33,0.15-0.65,0.32-0.97,0.51
			c-0.02,0.01-0.04,0.02-0.05,0.03c-1.74-0.64-3.31-1.28-4.68-1.91l1.61-4.5H615.32z M592.7,147.93h5.01v7.63l-1.61,4.49
			c-1.75-0.97-2.92-1.87-3.41-2.64C591.85,156.04,592.22,151.14,592.7,147.93z M622.91,157.41c-0.48,0.77-1.66,1.67-3.4,2.64
			l-1.61-4.49v-7.63h5.01C623.39,151.14,623.76,156.04,622.91,157.41z"/>
		<path class="st0" d="M607.81,178.09c5.58,0,10.09,0.65,10.09,1.45c0,0.18-0.23,0.35-0.64,0.51v1.68c0,5.22-4.23,9.45-9.45,9.45
			c-5.22,0-9.45-4.23-9.45-9.45v-1.68c-0.41-0.16-0.64-0.33-0.64-0.51C597.71,178.74,602.23,178.09,607.81,178.09z"/>
	</g>
</g>
<g>
	<g>
		<path class="st0" d="M518.04,103.28c-0.43,0-0.78,0-0.78,0v-0.7v-1.16c0-0.44-0.36-0.8-0.8-0.8h-17.21c-0.44,0-0.8,0.36-0.8,0.8
			v1.16v0.7c0,0-0.35,0-0.78,0c-0.43,0-0.78,0.36-0.78,0.8v3.05c0,0.44,0.35,0.8,0.78,0.8h0.78v2.41c0,0.44,0.36,0.8,0.8,0.8h0.73
			l2.89,3.36v5.73c0,0.44,0.36,0.8,0.8,0.8h0.34v5.39v1.48c0,0.44,0.36,0.8,0.8,0.8h1.27v5.21c0,0.44,0.36,0.8,0.8,0.8h-0.18v7.27
			c0,0.44-0.18,0.95-0.4,1.13c-0.22,0.18-0.3,0.67-0.18,1.1l0.37,1.33c0.12,0.42,0.57,0.77,1.02,0.77h0.7c0.44,0,0.9-0.35,1.02-0.77
			l0.37-1.33c0.12-0.42,0.04-0.92-0.18-1.1c-0.22-0.18-0.4-0.69-0.4-1.13v-7.27h-0.18c0.44,0,0.8-0.36,0.8-0.8v-5.21h1.27
			c0.44,0,0.8-0.36,0.8-0.8v-1.48v-5.39h0.34c0.44,0,0.8-0.36,0.8-0.8v-5.73l2.89-3.36h0.73c0.44,0,0.8-0.36,0.8-0.8v-2.41h0.78
			c0.43,0,0.78-0.36,0.78-0.8v-3.05C518.81,103.64,518.47,103.28,518.04,103.28z M511.24,116.11v3.33h-6.78v-3.33H511.24z
			 M515.66,104.18v5.36h-15.61v-5.36H515.66z"/>
		<path class="st0" d="M524.89,104.24h-4.48v2.75l4.49-0.68c0.44-0.07,0.79-0.48,0.79-0.92v-0.35
			C525.7,104.59,525.34,104.24,524.89,104.24z"/>
		<path class="st0" d="M490.02,105.04v0.35c0,0.44,0.35,0.85,0.79,0.92l4.49,0.68v-2.75h-4.48
			C490.38,104.24,490.02,104.59,490.02,105.04z"/>
	</g>
	<defs>
		
			<filter id="Adobe_OpacityMaskFilter_00000153686349123453390580000010651254297464998578_" filterUnits="userSpaceOnUse" x="490.02" y="146.33" width="35.68" height="45.71">
			<feColorMatrix  type="matrix" values="1 0 0 0 0  0 1 0 0 0  0 0 1 0 0  0 0 0 1 0"/>
		</filter>
	</defs>
	
		<mask maskUnits="userSpaceOnUse" x="490.02" y="146.33" width="35.68" height="45.71" id="SVGID_00000065046325634389048580000012669287096640190878_">
		<g style="filter:url(#Adobe_OpacityMaskFilter_00000153686349123453390580000010651254297464998578_);">
			
				<linearGradient id="SVGID_00000118396745481568271680000000327114083902004660_" gradientUnits="userSpaceOnUse" x1="509.4072" y1="180.4042" x2="509.4072" y2="146.33">
				<stop  offset="0" style="stop-color:#000000"/>
				<stop  offset="0.3726" style="stop-color:#020202"/>
				<stop  offset="0.5069" style="stop-color:#090909"/>
				<stop  offset="0.6026" style="stop-color:#141414"/>
				<stop  offset="0.68" style="stop-color:#252525"/>
				<stop  offset="0.7463" style="stop-color:#3B3B3B"/>
				<stop  offset="0.805" style="stop-color:#575757"/>
				<stop  offset="0.8581" style="stop-color:#777777"/>
				<stop  offset="0.9069" style="stop-color:#9D9D9D"/>
				<stop  offset="0.9523" style="stop-color:#C8C8C8"/>
				<stop  offset="0.9926" style="stop-color:#F6F6F6"/>
				<stop  offset="1" style="stop-color:#FFFFFF"/>
			</linearGradient>
			
				<rect x="466.38" y="146.33" style="fill:url(#SVGID_00000118396745481568271680000000327114083902004660_);" width="86.06" height="34.07"/>
		</g>
	</mask>
	<g style="opacity:0.5;mask:url(#SVGID_00000065046325634389048580000012669287096640190878_);">
		<path class="st0" d="M518.81,188.58v-3.05c0-0.44-0.35-0.8-0.78-0.8h-0.78v-2.41c0-0.44-0.36-0.8-0.8-0.8h-0.73l-2.89-3.36v-5.73
			c0-0.44-0.36-0.8-0.8-0.8h-0.34v-5.39v-1.48c0-0.44-0.36-0.8-0.8-0.8h-1.27v-5.21c0-0.44-0.36-0.8-0.8-0.8h0.18v-7.27
			c0-0.44,0.18-0.95,0.4-1.13c0.22-0.18,0.3-0.67,0.18-1.1l-0.37-1.33c-0.12-0.42-0.57-0.77-1.02-0.77h-0.7
			c-0.44,0-0.9,0.35-1.02,0.77l-0.37,1.33c-0.12,0.42-0.04,0.92,0.18,1.1c0.22,0.18,0.4,0.69,0.4,1.13v7.27h0.18
			c-0.44,0-0.8,0.36-0.8,0.8v5.21h-1.27c-0.44,0-0.8,0.36-0.8,0.8v1.48v5.39h-0.34c-0.44,0-0.8,0.36-0.8,0.8v5.73l-2.89,3.36h-0.73
			c-0.44,0-0.8,0.36-0.8,0.8v2.41h-0.78c-0.43,0-0.78,0.36-0.78,0.8v3.05c0,0.44,0.35,0.8,0.78,0.8c0.43,0,0.78,0,0.78,0v0.7v1.16
			c0,0.44,0.36,0.8,0.8,0.8h17.21c0.44,0,0.8-0.36,0.8-0.8v-1.16v-0.7c0,0,0.35,0,0.78,0C518.47,189.38,518.81,189.02,518.81,188.58
			z M504.47,176.55v-3.33h6.78v3.33H504.47z M500.05,188.48v-5.36h15.61v5.36H500.05z"/>
		<path class="st0" d="M524.89,188.42h-4.48v-2.75l4.49,0.68c0.44,0.07,0.79,0.48,0.79,0.92v0.35
			C525.7,188.07,525.34,188.42,524.89,188.42z"/>
		<path class="st0" d="M490.02,187.62v-0.35c0-0.44,0.35-0.85,0.79-0.92l4.49-0.68v2.75h-4.48
			C490.38,188.42,490.02,188.07,490.02,187.62z"/>
	</g>
</g>
<g>
	<g>
		<path class="st0" d="M724.76,122.11h-7.09h-7.08v7.2h-7.09h-2.62v17.02h2.62h21.26h2.62v-24.22H724.76z M706.77,142.4h-2.24v-4.86
			h2.24V142.4z M706.77,135.2h-2.24v-4.86h2.24V135.2z M709.57,142.4h-2.25v-2.82h2.25V142.4z M709.57,139.03h-2.25v-1.49h2.25
			V139.03z M709.57,135.2h-2.25v-2.82h2.25V135.2z M709.57,131.83h-2.25v-1.49h2.25V131.83z M713.86,142.4h-2.24v-4.86h2.24V142.4z
			 M713.86,135.2h-2.24v-4.86h2.24V135.2z M713.86,128h-2.24v-4.86h2.24V128z M716.66,142.4h-2.24v-2.82h2.24V142.4z M716.66,139.03
			h-2.24v-1.49h2.24V139.03z M716.66,135.2h-2.24v-2.82h2.24V135.2z M716.66,131.83h-2.24v-1.49h2.24V131.83z M716.66,128h-2.24
			v-2.82h2.24V128z M716.66,124.63h-2.24v-1.49h2.24V124.63z M720.95,142.4h-2.24v-4.86h2.24V142.4z M720.95,135.2h-2.24v-4.86h2.24
			V135.2z M720.95,128h-2.24v-4.86h2.24V128z M723.74,142.4h-2.24v-2.82h2.24V142.4z M723.74,139.03h-2.24v-1.49h2.24V139.03z
			 M723.74,135.2h-2.24v-2.82h2.24V135.2z M723.74,131.83h-2.24v-1.49h2.24V131.83z M723.74,128h-2.24v-2.82h2.24V128z
			 M723.74,124.63h-2.24v-1.49h2.24V124.63z"/>
		<path class="st0" d="M703.62,111.91h-4.91v4.67h3.42L703.62,111.91z M701.32,115.46h-1.48v-2.43h2.26L701.32,115.46z"/>
		<path class="st0" d="M697.9,144.04v-32.95h6.75v5.96h-0.06v0.66l0.32,0.47h0.26v0.27c0,0.05,0.04,0.09,0.09,0.09
			c0.19,0,0.35,0.16,0.35,0.35c0,0.12-0.06,0.22-0.14,0.28l-0.24-0.1c-0.02-0.01-0.04-0.01-0.06,0l-0.15,0.07
			c-0.01-0.01-0.03-0.02-0.04-0.04c-0.03-0.04-0.09-0.05-0.13-0.02c-0.04,0.03-0.05,0.09-0.02,0.13c0,0,0.01,0,0.01,0.01l-2.7,1.17
			h-0.45v7.2h7.09v-7.2h-0.45l-2.68-1.14c0.09-0.1,0.14-0.22,0.14-0.36c0-0.26-0.19-0.48-0.44-0.53v-0.19h0.22l0.32-0.47v-0.66
			h-0.03v-5.96h3.36c0.15,0,0.29-0.09,0.35-0.24c0.05-0.14,0.02-0.31-0.1-0.41l-3.9-3.49c-0.07-0.06-0.16-0.1-0.25-0.1h-7.42v-3.12
			c0-0.21-0.17-0.37-0.37-0.37h-4.92c-0.21,0-0.37,0.17-0.37,0.37v3.12h-3.53c-0.21,0-0.37,0.17-0.37,0.37v3.49
			c0,0.21,0.17,0.37,0.37,0.37h3.53v32.95h-1.56l-0.66,0.95v1.34h2.59h4.92h2.59v-1.34l-0.66-0.95H697.9z M705.2,119.22l0.05,0.02
			c-0.03,0-0.05,0-0.08-0.01L705.2,119.22z M704.96,126.28h-2.24v-4.86h2.24V126.28z M707.76,126.28h-2.24v-2.82h2.24V126.28z
			 M707.76,122.91h-2.24v-1.49h2.24V122.91z M707.96,120.4h-5.45l2.45-1.07c0.09,0.06,0.19,0.1,0.31,0.1c0.1,0,0.18-0.03,0.26-0.07
			L707.96,120.4z M705.66,117.04h-0.81v-5.96h0.81V117.04z M705.69,108.06l2.55,2.28h-2.55V108.06z M704.95,107.6v2.28l-2.55-2.28
			H704.95z M701.79,108.06l2.55,2.28h-2.55V108.06z M701.05,107.6v2.28l-2.55-2.28H701.05z M697.9,108.06l2.55,2.28h-2.55V108.06z
			 M696.35,107.6l-1.29,0.92l-1.29-0.92H696.35z M693.77,106.85l1.29-0.92l1.29,0.92H693.77z M697.15,107.94v2.05l-1.44-1.02
			L697.15,107.94z M696.35,110.34h-2.58l1.29-0.92L696.35,110.34z M697.15,111.43v2.05l-1.44-1.02L697.15,111.43z M696.35,111.08
			l-1.29,0.92l-1.29-0.92H696.35z M696.88,114.2l-1.81,1.29l-1.82-1.29l1.82-1.29L696.88,114.2z M697.15,114.92v2.05l-1.44-1.02
			L697.15,114.92z M696.88,117.69l-1.81,1.29l-1.82-1.29l1.82-1.29L696.88,117.69z M697.15,118.41v2.05l-1.44-1.02L697.15,118.41z
			 M696.88,121.18l-1.81,1.29l-1.82-1.29l1.82-1.29L696.88,121.18z M697.15,121.9v2.05l-1.44-1.02L697.15,121.9z M697.13,124.85
			l-2.07,1.47l-2.07-1.47l2.07-1.47L697.13,124.85z M697.15,125.75v0.54v1.5l-1.44-1.02L697.15,125.75z M696.88,128.52l-1.81,1.29
			l-1.82-1.29l1.82-1.29L696.88,128.52z M697.15,129.24v2.05l-1.44-1.02L697.15,129.24z M696.88,132l-1.81,1.29l-1.82-1.29
			l1.82-1.29L696.88,132z M697.15,132.72v2.05l-1.44-1.02L697.15,132.72z M696.88,135.49l-1.81,1.29l-1.82-1.29l1.82-1.29
			L696.88,135.49z M697.15,136.21v2.05l-1.44-1.02L697.15,136.21z M696.88,138.98l-1.81,1.29l-1.82-1.29l1.82-1.29L696.88,138.98z
			 M697.15,139.7v2.05l-1.44-1.02L697.15,139.7z M696.88,142.47l-1.81,1.29l-1.82-1.29l1.82-1.29L696.88,142.47z M697.15,143.19
			v0.85h-1.19L697.15,143.19z M697.15,106.5l-1.44-1.02l1.44-1.02V106.5z M696.35,104.11l-1.29,0.92l-1.29-0.92H696.35z
			 M692.98,104.46l1.44,1.02l-1.44,1.02V104.46z M692.98,107.94l1.44,1.02l-1.44,1.02V107.94z M692.98,111.43l1.44,1.02l-1.44,1.02
			V111.43z M692.98,114.92l1.44,1.02l-1.44,1.02V114.92z M692.98,118.41l1.44,1.02l-1.44,1.02V118.41z M692.98,123.4v-1.5l1.44,1.02
			l-1.44,1.02V123.4z M692.98,126.29v-0.54l1.44,1.02l-1.44,1.02V126.29z M692.98,129.24l1.44,1.02l-1.44,1.02V129.24z
			 M692.98,132.72l1.44,1.02l-1.44,1.02V132.72z M692.98,136.21l1.44,1.02l-1.44,1.02V136.21z M692.98,139.7l1.44,1.02l-1.44,1.02
			V139.7z M689.08,110.34v-2.28l2.55,2.28H689.08z M689.68,107.6h2.55v2.28L689.68,107.6z M692.98,143.19l1.19,0.85h-1.19V143.19z"
			/>
	</g>
	<defs>
		
			<filter id="Adobe_OpacityMaskFilter_00000052802434100493284410000001638967996465891984_" filterUnits="userSpaceOnUse" x="688.33" y="146.33" width="39.05" height="42.97">
			<feColorMatrix  type="matrix" values="1 0 0 0 0  0 1 0 0 0  0 0 1 0 0  0 0 0 1 0"/>
		</filter>
	</defs>
	
		<mask maskUnits="userSpaceOnUse" x="688.33" y="146.33" width="39.05" height="42.97" id="SVGID_00000150104824495864801520000011527087049436926094_">
		<g style="filter:url(#Adobe_OpacityMaskFilter_00000052802434100493284410000001638967996465891984_);">
			
				<linearGradient id="SVGID_00000089533372830734098010000015484577303514820282_" gradientUnits="userSpaceOnUse" x1="711.4118" y1="180.4042" x2="711.4118" y2="146.33">
				<stop  offset="0" style="stop-color:#000000"/>
				<stop  offset="0.3726" style="stop-color:#020202"/>
				<stop  offset="0.5069" style="stop-color:#090909"/>
				<stop  offset="0.6026" style="stop-color:#141414"/>
				<stop  offset="0.68" style="stop-color:#252525"/>
				<stop  offset="0.7463" style="stop-color:#3B3B3B"/>
				<stop  offset="0.805" style="stop-color:#575757"/>
				<stop  offset="0.8581" style="stop-color:#777777"/>
				<stop  offset="0.9069" style="stop-color:#9D9D9D"/>
				<stop  offset="0.9523" style="stop-color:#C8C8C8"/>
				<stop  offset="0.9926" style="stop-color:#F6F6F6"/>
				<stop  offset="1" style="stop-color:#FFFFFF"/>
			</linearGradient>
			
				<rect x="668.38" y="146.33" style="fill:url(#SVGID_00000089533372830734098010000015484577303514820282_);" width="86.06" height="34.07"/>
		</g>
	</mask>
	<g style="opacity:0.5;mask:url(#SVGID_00000150104824495864801520000011527087049436926094_);">
		<path class="st0" d="M727.38,170.55v-24.22h-2.62h-21.26h-2.62v17.02h2.62h7.09v7.2h7.08h7.09H727.38z M706.77,155.12h-2.24v-4.86
			h2.24V155.12z M706.77,162.33h-2.24v-4.86h2.24V162.33z M709.57,153.08h-2.25v-2.82h2.25V153.08z M709.57,155.12h-2.25v-1.49h2.25
			V155.12z M709.57,160.28h-2.25v-2.82h2.25V160.28z M709.57,162.33h-2.25v-1.49h2.25V162.33z M713.86,155.12h-2.24v-4.86h2.24
			V155.12z M713.86,162.33h-2.24v-4.86h2.24V162.33z M713.86,169.52h-2.24v-4.86h2.24V169.52z M716.66,153.08h-2.24v-2.82h2.24
			V153.08z M716.66,155.12h-2.24v-1.49h2.24V155.12z M716.66,160.28h-2.24v-2.82h2.24V160.28z M716.66,162.33h-2.24v-1.49h2.24
			V162.33z M716.66,167.48h-2.24v-2.82h2.24V167.48z M716.66,169.52h-2.24v-1.49h2.24V169.52z M720.95,155.12h-2.24v-4.86h2.24
			V155.12z M720.95,162.33h-2.24v-4.86h2.24V162.33z M720.95,169.52h-2.24v-4.86h2.24V169.52z M723.74,153.08h-2.24v-2.82h2.24
			V153.08z M723.74,155.12h-2.24v-1.49h2.24V155.12z M723.74,160.28h-2.24v-2.82h2.24V160.28z M723.74,162.33h-2.24v-1.49h2.24
			V162.33z M723.74,167.48h-2.24v-2.82h2.24V167.48z M723.74,169.52h-2.24v-1.49h2.24V169.52z"/>
		<path class="st0" d="M702.13,176.08h-3.42v4.67h4.91L702.13,176.08z M702.1,179.63h-2.26v-2.43h1.48L702.1,179.63z"/>
		<path class="st0" d="M699.46,148.62l0.66-0.95v-1.34h-2.59h-4.92h-2.59v1.34l0.66,0.95h1.56v32.95h-3.53
			c-0.21,0-0.37,0.17-0.37,0.37v3.49c0,0.21,0.17,0.37,0.37,0.37h3.53v3.12c0,0.21,0.17,0.37,0.37,0.37h4.92
			c0.21,0,0.37-0.17,0.37-0.37v-3.12h7.42c0.09,0,0.18-0.03,0.25-0.1l3.9-3.49c0.12-0.1,0.15-0.27,0.1-0.41
			c-0.05-0.14-0.19-0.24-0.35-0.24h-3.36v-5.96h0.03v-0.66l-0.32-0.47h-0.22v-0.19c0.25-0.04,0.44-0.26,0.44-0.53
			c0-0.14-0.06-0.27-0.14-0.36l2.68-1.14h0.45v-7.2h-7.09v7.2h0.45l2.7,1.17c0,0,0,0.01-0.01,0.01c-0.03,0.04-0.02,0.1,0.02,0.13
			c0.04,0.03,0.1,0.02,0.13-0.02c0.01-0.01,0.02-0.03,0.04-0.04l0.15,0.07c0.02,0.01,0.04,0.01,0.06,0l0.24-0.1
			c0.09,0.06,0.14,0.17,0.14,0.28c0,0.19-0.16,0.35-0.35,0.35c-0.05,0-0.09,0.04-0.09,0.09v0.27h-0.26l-0.32,0.47v0.66h0.06v5.96
			h-6.75v-32.95H699.46z M705.17,173.43c0.03-0.01,0.05-0.01,0.08-0.01l-0.05,0.02L705.17,173.43z M704.96,171.24h-2.24v-4.86h2.24
			V171.24z M707.76,169.2h-2.24v-2.82h2.24V169.2z M707.76,171.24h-2.24v-1.49h2.24V171.24z M705.52,173.3
			c-0.08-0.04-0.17-0.07-0.26-0.07c-0.11,0-0.22,0.04-0.31,0.1l-2.45-1.07h5.45L705.52,173.3z M705.66,181.58h-0.81v-5.96h0.81
			V181.58z M705.69,182.32h2.55l-2.55,2.28V182.32z M702.4,185.06l2.55-2.28v2.28H702.4z M701.79,182.32h2.55l-2.55,2.28V182.32z
			 M698.5,185.06l2.55-2.28v2.28H698.5z M697.9,182.32h2.55l-2.55,2.28V182.32z M693.77,185.06l1.29-0.91l1.29,0.91H693.77z
			 M696.35,185.81l-1.29,0.92l-1.29-0.92H696.35z M695.71,183.69l1.44-1.02v2.05L695.71,183.69z M695.06,183.24l-1.29-0.92h2.58
			L695.06,183.24z M695.71,180.2l1.44-1.02v2.05L695.71,180.2z M693.77,181.58l1.29-0.91l1.29,0.91H693.77z M695.06,179.75
			l-1.82-1.29l1.82-1.29l1.81,1.29L695.06,179.75z M695.71,176.72l1.44-1.02v2.05L695.71,176.72z M695.06,176.26l-1.82-1.29
			l1.82-1.29l1.81,1.29L695.06,176.26z M695.71,173.23l1.44-1.02v2.05L695.71,173.23z M695.06,172.77l-1.82-1.29l1.82-1.29
			l1.81,1.29L695.06,172.77z M695.71,169.74l1.44-1.02v2.05L695.71,169.74z M695.06,169.28l-2.07-1.47l2.07-1.47l2.07,1.47
			L695.06,169.28z M695.71,165.89l1.44-1.02v1.5v0.54L695.71,165.89z M695.06,165.43l-1.82-1.29l1.82-1.29l1.81,1.29L695.06,165.43z
			 M695.71,162.4l1.44-1.02v2.05L695.71,162.4z M695.06,161.94l-1.82-1.29l1.82-1.29l1.81,1.29L695.06,161.94z M695.71,158.91
			l1.44-1.02v2.05L695.71,158.91z M695.06,158.45l-1.82-1.29l1.82-1.29l1.81,1.29L695.06,158.45z M695.71,155.42l1.44-1.02v2.05
			L695.71,155.42z M695.06,154.97l-1.82-1.29l1.82-1.29l1.81,1.29L695.06,154.97z M695.71,151.94l1.44-1.02v2.05L695.71,151.94z
			 M695.06,151.48l-1.82-1.29l1.82-1.29l1.81,1.29L695.06,151.48z M695.96,148.62h1.19v0.85L695.96,148.62z M697.15,188.2
			l-1.44-1.02l1.44-1.02V188.2z M693.77,188.55l1.29-0.92l1.29,0.92H693.77z M692.98,186.16l1.44,1.02l-1.44,1.02V186.16z
			 M692.98,182.67l1.44,1.02l-1.44,1.02V182.67z M692.98,179.18l1.44,1.02l-1.44,1.02V179.18z M692.98,175.69l1.44,1.02l-1.44,1.02
			V175.69z M692.98,172.2l1.44,1.02l-1.44,1.02V172.2z M692.98,168.71l1.44,1.02l-1.44,1.02v-1.5V168.71z M692.98,164.86l1.44,1.02
			l-1.44,1.02v-0.54V164.86z M692.98,161.38l1.44,1.02l-1.44,1.02V161.38z M692.98,157.89l1.44,1.02l-1.44,1.02V157.89z
			 M692.98,154.4l1.44,1.02l-1.44,1.02V154.4z M692.98,150.91l1.44,1.02l-1.44,1.02V150.91z M691.63,182.32l-2.55,2.28v-2.28H691.63
			z M692.23,182.78v2.28h-2.55L692.23,182.78z M692.98,148.62h1.19l-1.19,0.85V148.62z"/>
	</g>
</g>
<g>
	<g>
		<g>
			<g>
				<path class="st0" d="M400.49,136.7c1.77,0,3.21,1.44,3.21,3.21c0,1.77-1.44,3.21-3.21,3.21c-1.77,0-3.21-1.44-3.21-3.21
					C397.27,138.15,398.71,136.7,400.49,136.7L400.49,136.7z M400.49,134.3c-3.1,0-5.61,2.51-5.61,5.61c0,3.1,2.51,5.61,5.61,5.61
					c3.1,0,5.61-2.51,5.61-5.61C406.1,136.82,403.59,134.3,400.49,134.3L400.49,134.3z"/>
			</g>
			<g>
				<path class="st0" d="M411.71,136.7c1.77,0,3.21,1.44,3.21,3.21c0,1.77-1.44,3.21-3.21,3.21c-1.77,0-3.21-1.44-3.21-3.21
					C408.5,138.15,409.94,136.7,411.71,136.7L411.71,136.7z M411.71,134.3c-3.1,0-5.61,2.51-5.61,5.61c0,3.1,2.51,5.61,5.61,5.61
					c3.1,0,5.61-2.51,5.61-5.61C417.32,136.82,414.81,134.3,411.71,134.3L411.71,134.3z"/>
			</g>
			<g>
				<path class="st0" d="M422.94,136.7c1.77,0,3.21,1.44,3.21,3.21c0,1.77-1.44,3.21-3.21,3.21c-1.77,0-3.21-1.44-3.21-3.21
					C419.72,138.15,421.16,136.7,422.94,136.7L422.94,136.7z M422.94,134.3c-3.1,0-5.61,2.51-5.61,5.61c0,3.1,2.51,5.61,5.61,5.61
					c3.1,0,5.61-2.51,5.61-5.61C428.55,136.82,426.03,134.3,422.94,134.3L422.94,134.3z"/>
			</g>
			<g>
				<path class="st0" d="M434.16,136.7c1.77,0,3.21,1.44,3.21,3.21c0,1.77-1.44,3.21-3.21,3.21c-1.77,0-3.21-1.44-3.21-3.21
					C430.95,138.15,432.39,136.7,434.16,136.7L434.16,136.7z M434.16,134.3c-3.1,0-5.61,2.51-5.61,5.61c0,3.1,2.51,5.61,5.61,5.61
					c3.1,0,5.61-2.51,5.61-5.61C439.77,136.82,437.26,134.3,434.16,134.3L434.16,134.3z"/>
			</g>
			<g>
				<path class="st0" d="M443.2,135.87c1.15,0,2.09,0.94,2.09,2.09s-0.94,2.09-2.09,2.09s-2.09-0.94-2.09-2.09
					S442.05,135.87,443.2,135.87L443.2,135.87z M443.2,134.3c-2.02,0-3.66,1.64-3.66,3.66c0,2.02,1.64,3.66,3.66,3.66
					s3.66-1.64,3.66-3.66C446.86,135.94,445.22,134.3,443.2,134.3L443.2,134.3z"/>
			</g>
			<g>
				<path class="st0" d="M391.22,135.87c1.15,0,2.09,0.94,2.09,2.09s-0.94,2.09-2.09,2.09s-2.09-0.94-2.09-2.09
					S390.06,135.87,391.22,135.87L391.22,135.87z M391.22,134.3c-2.02,0-3.66,1.64-3.66,3.66c0,2.02,1.64,3.66,3.66,3.66
					c2.02,0,3.66-1.64,3.66-3.66C394.87,135.94,393.24,134.3,391.22,134.3L391.22,134.3z"/>
			</g>
			<path class="st0" d="M435.66,146.33h-36.9c-1.94,0-4.69-0.87-6.28-1.98l-2.76-1.94c-1.66-1.16-2.96-3.49-2.96-5.3
				c0-1.99,1.8-3.61,4-3.61h52.9c2.21,0,4,1.62,4,3.61c0,1.81-1.3,4.13-2.96,5.3l-2.76,1.94
				C440.35,145.46,437.6,146.33,435.66,146.33z M390.76,135.1c-1.32,0-2.4,0.9-2.4,2.01c0,1.27,1.07,3.14,2.28,3.99l2.76,1.94
				c1.31,0.92,3.76,1.69,5.36,1.69h36.9c1.6,0,4.05-0.77,5.36-1.69l2.76-1.94c1.21-0.85,2.28-2.72,2.28-3.99
				c0-1.11-1.08-2.01-2.4-2.01H390.76z"/>
		</g>
		<g>
			<path class="st0" d="M438.47,127h-0.17v-15.76c0-0.88-0.72-1.6-1.6-1.6h-16.75c-0.74,0-1.35,0.5-1.54,1.18h-1.66v-7.61
				c0-0.35-0.29-0.64-0.64-0.64h-13.65c-0.35,0-0.77,0.25-0.94,0.57l-5.81,11.08c-0.16,0.31-0.3,0.85-0.3,1.21V127h-0.17
				c-0.88,0-1.6,0.72-1.6,1.6v1.63c0,0.88,0.72,1.6,1.6,1.6h43.21c0.88,0,1.6-0.72,1.6-1.6v-1.63
				C440.07,127.72,439.35,127,438.47,127z M414.83,114.79h-17.25l5.39-10.29h11.85V114.79z M418.35,126.2h-1.6v-13.77h1.6V126.2z
				 M434.45,125.14H422.2c-0.44,0-0.8-0.36-0.8-0.8c0-0.44,0.36-0.8,0.8-0.8h12.25c0.44,0,0.8,0.36,0.8,0.8
				C435.25,124.78,434.89,125.14,434.45,125.14z M434.45,121.13H422.2c-0.44,0-0.8-0.36-0.8-0.8c0-0.44,0.36-0.8,0.8-0.8h12.25
				c0.44,0,0.8,0.36,0.8,0.8C435.25,120.77,434.89,121.13,434.45,121.13z M434.45,117.12H422.2c-0.44,0-0.8-0.36-0.8-0.8
				c0-0.44,0.36-0.8,0.8-0.8h12.25c0.44,0,0.8,0.36,0.8,0.8C435.25,116.76,434.89,117.12,434.45,117.12z M434.45,113.1H422.2
				c-0.44,0-0.8-0.36-0.8-0.8c0-0.44,0.36-0.8,0.8-0.8h12.25c0.44,0,0.8,0.36,0.8,0.8C435.25,112.75,434.89,113.1,434.45,113.1z"/>
			<path class="st0" d="M381.96,110.92c2.23,0,4.05-1.81,4.05-4.05c0-2.24-1.81-4.05-4.05-4.05c-2.24,0-4.05,1.81-4.05,4.05
				C377.91,109.11,379.72,110.92,381.96,110.92z M381.96,104.62c1.24,0,2.26,1.01,2.26,2.26c0,1.24-1.01,2.26-2.26,2.26
				c-1.25,0-2.26-1.01-2.26-2.26C379.7,105.63,380.71,104.62,381.96,104.62z"/>
			<path class="st0" d="M385.45,118.95h-9.38c-0.11,2.32-1.86,4.22-4.12,4.54c0.32,0.67,0.75,1.29,1.31,1.84
				c2.65,2.65,6.94,2.65,9.58,0l4.52-4.46v-0.07v-1.86l-1.9-2.38V118.95z"/>
			<path class="st0" d="M374.48,118.73c0-1.77-1.44-3.21-3.21-3.21c-1.77,0-3.21,1.44-3.21,3.21c0,1.77,1.44,3.21,3.21,3.21
				C373.04,121.94,374.48,120.5,374.48,118.73z M371.27,120.52c-0.99,0-1.79-0.8-1.79-1.79c0-0.99,0.8-1.79,1.79-1.79
				c0.99,0,1.79,0.8,1.79,1.79C373.06,119.71,372.25,120.52,371.27,120.52z"/>
			<path class="st0" d="M375.97,117.7l4.79-5.31c-1.96-0.43-3.54-1.87-4.16-3.75l-4.79,5.31
				C373.86,114.18,375.53,115.71,375.97,117.7z"/>
			<path class="st0" d="M383.38,112.34l10.44,8.22v-5.13c0-0.61,0.2-1.41,0.48-1.95l2.19-4.18l-9.06-3.82
				c0.11,0.45,0.18,0.91,0.18,1.39C387.61,109.5,385.81,111.7,383.38,112.34z"/>
		</g>
	</g>
	<defs>
		
			<filter id="Adobe_OpacityMaskFilter_00000131354046313922068250000015205503900187799487_" filterUnits="userSpaceOnUse" x="368.05" y="146.33" width="79.61" height="43.75">
			<feColorMatrix  type="matrix" values="1 0 0 0 0  0 1 0 0 0  0 0 1 0 0  0 0 0 1 0"/>
		</filter>
	</defs>
	
		<mask maskUnits="userSpaceOnUse" x="368.05" y="146.33" width="79.61" height="43.75" id="SVGID_00000176026737408962050900000010360649897641057171_">
		<g style="filter:url(#Adobe_OpacityMaskFilter_00000131354046313922068250000015205503900187799487_);">
			
				<linearGradient id="SVGID_00000076585255458115478340000007915666352079623605_" gradientUnits="userSpaceOnUse" x1="408.4048" y1="180.4042" x2="408.4048" y2="146.33">
				<stop  offset="0" style="stop-color:#000000"/>
				<stop  offset="0.3726" style="stop-color:#020202"/>
				<stop  offset="0.5069" style="stop-color:#090909"/>
				<stop  offset="0.6026" style="stop-color:#141414"/>
				<stop  offset="0.68" style="stop-color:#252525"/>
				<stop  offset="0.7463" style="stop-color:#3B3B3B"/>
				<stop  offset="0.805" style="stop-color:#575757"/>
				<stop  offset="0.8581" style="stop-color:#777777"/>
				<stop  offset="0.9069" style="stop-color:#9D9D9D"/>
				<stop  offset="0.9523" style="stop-color:#C8C8C8"/>
				<stop  offset="0.9926" style="stop-color:#F6F6F6"/>
				<stop  offset="1" style="stop-color:#FFFFFF"/>
			</linearGradient>
			
				<rect x="365.37" y="146.33" style="fill:url(#SVGID_00000076585255458115478340000007915666352079623605_);" width="86.06" height="34.07"/>
		</g>
	</mask>
	<g style="opacity:0.5;mask:url(#SVGID_00000176026737408962050900000010360649897641057171_);">
		<g>
			<g>
				<path class="st0" d="M400.49,155.95c-1.77,0-3.21-1.44-3.21-3.21c0-1.77,1.44-3.21,3.21-3.21c1.77,0,3.21,1.44,3.21,3.21
					C403.7,154.51,402.26,155.95,400.49,155.95L400.49,155.95z M400.49,158.36c3.1,0,5.61-2.51,5.61-5.61c0-3.1-2.51-5.61-5.61-5.61
					c-3.1,0-5.61,2.51-5.61,5.61C394.87,155.84,397.39,158.36,400.49,158.36L400.49,158.36z"/>
			</g>
			<g>
				<path class="st0" d="M411.71,155.95c-1.77,0-3.21-1.44-3.21-3.21c0-1.77,1.44-3.21,3.21-3.21c1.77,0,3.21,1.44,3.21,3.21
					C414.92,154.51,413.48,155.95,411.71,155.95L411.71,155.95z M411.71,158.36c3.1,0,5.61-2.51,5.61-5.61
					c0-3.1-2.51-5.61-5.61-5.61c-3.1,0-5.61,2.51-5.61,5.61C406.1,155.84,408.61,158.36,411.71,158.36L411.71,158.36z"/>
			</g>
			<g>
				<path class="st0" d="M422.94,155.95c-1.77,0-3.21-1.44-3.21-3.21c0-1.77,1.44-3.21,3.21-3.21c1.77,0,3.21,1.44,3.21,3.21
					C426.15,154.51,424.71,155.95,422.94,155.95L422.94,155.95z M422.94,158.36c3.1,0,5.61-2.51,5.61-5.61
					c0-3.1-2.51-5.61-5.61-5.61c-3.1,0-5.61,2.51-5.61,5.61C417.32,155.84,419.84,158.36,422.94,158.36L422.94,158.36z"/>
			</g>
			<g>
				<path class="st0" d="M434.16,155.95c-1.77,0-3.21-1.44-3.21-3.21c0-1.77,1.44-3.21,3.21-3.21c1.77,0,3.21,1.44,3.21,3.21
					C437.37,154.51,435.93,155.95,434.16,155.95L434.16,155.95z M434.16,158.36c3.1,0,5.61-2.51,5.61-5.61
					c0-3.1-2.51-5.61-5.61-5.61c-3.1,0-5.61,2.51-5.61,5.61C428.55,155.84,431.06,158.36,434.16,158.36L434.16,158.36z"/>
			</g>
			<g>
				<path class="st0" d="M443.2,156.79c-1.15,0-2.09-0.94-2.09-2.09c0-1.15,0.94-2.09,2.09-2.09s2.09,0.94,2.09,2.09
					C445.3,155.85,444.36,156.79,443.2,156.79L443.2,156.79z M443.2,158.36c2.02,0,3.66-1.64,3.66-3.66c0-2.02-1.64-3.66-3.66-3.66
					s-3.66,1.64-3.66,3.66C439.55,156.72,441.18,158.36,443.2,158.36L443.2,158.36z"/>
			</g>
			<g>
				<path class="st0" d="M391.22,156.79c-1.15,0-2.09-0.94-2.09-2.09c0-1.15,0.94-2.09,2.09-2.09s2.09,0.94,2.09,2.09
					C393.31,155.85,392.37,156.79,391.22,156.79L391.22,156.79z M391.22,158.36c2.02,0,3.66-1.64,3.66-3.66
					c0-2.02-1.64-3.66-3.66-3.66c-2.02,0-3.66,1.64-3.66,3.66C387.56,156.72,389.2,158.36,391.22,158.36L391.22,158.36z"/>
			</g>
			<path class="st0" d="M441.94,148.31l2.76,1.94c1.66,1.16,2.96,3.49,2.96,5.3c0,1.99-1.79,3.61-4,3.61h-52.9c-2.2,0-4-1.62-4-3.61
				c0-1.81,1.3-4.13,2.96-5.3l2.76-1.94c1.59-1.11,4.34-1.98,6.28-1.98h36.9C437.6,146.33,440.35,147.2,441.94,148.31z
				 M443.66,157.56c1.32,0,2.4-0.9,2.4-2.01c0-1.27-1.06-3.14-2.28-3.99l-2.76-1.94c-1.31-0.92-3.76-1.69-5.36-1.69h-36.9
				c-1.6,0-4.05,0.77-5.36,1.69l-2.76,1.94c-1.21,0.85-2.28,2.72-2.28,3.99c0,1.11,1.08,2.01,2.4,2.01H443.66z"/>
		</g>
		<g>
			<path class="st0" d="M440.07,164.06v-1.63c0-0.88-0.72-1.6-1.6-1.6h-43.21c-0.88,0-1.6,0.72-1.6,1.6v1.63
				c0,0.88,0.72,1.6,1.6,1.6h0.17v11.57c0,0.35,0.13,0.89,0.3,1.21l5.81,11.08c0.16,0.31,0.58,0.57,0.94,0.57h13.65
				c0.35,0,0.64-0.29,0.64-0.64v-7.61h1.66c0.18,0.68,0.8,1.18,1.54,1.18h16.75c0.88,0,1.6-0.72,1.6-1.6v-15.76h0.17
				C439.35,165.66,440.07,164.94,440.07,164.06z M414.83,188.16h-11.85l-5.39-10.29h17.25V188.16z M418.35,180.23h-1.6v-13.77h1.6
				V180.23z M435.25,168.32c0,0.44-0.36,0.8-0.8,0.8H422.2c-0.44,0-0.8-0.36-0.8-0.8c0-0.44,0.36-0.8,0.8-0.8h12.25
				C434.89,167.52,435.25,167.88,435.25,168.32z M435.25,172.33c0,0.44-0.36,0.8-0.8,0.8H422.2c-0.44,0-0.8-0.36-0.8-0.8
				c0-0.44,0.36-0.8,0.8-0.8h12.25C434.89,171.53,435.25,171.89,435.25,172.33z M435.25,176.34c0,0.44-0.36,0.8-0.8,0.8H422.2
				c-0.44,0-0.8-0.36-0.8-0.8c0-0.44,0.36-0.8,0.8-0.8h12.25C434.89,175.54,435.25,175.9,435.25,176.34z M435.25,180.36
				c0,0.44-0.36,0.8-0.8,0.8H422.2c-0.44,0-0.8-0.36-0.8-0.8c0-0.44,0.36-0.8,0.8-0.8h12.25
				C434.89,179.56,435.25,179.91,435.25,180.36z"/>
			<path class="st0" d="M377.91,185.78c0,2.24,1.81,4.05,4.05,4.05c2.23,0,4.05-1.81,4.05-4.05c0-2.23-1.81-4.05-4.05-4.05
				C379.72,181.74,377.91,183.55,377.91,185.78z M379.7,185.78c0-1.24,1.01-2.26,2.26-2.26c1.24,0,2.26,1.01,2.26,2.26
				c0,1.25-1.01,2.26-2.26,2.26C380.71,188.04,379.7,187.03,379.7,185.78z"/>
			<path class="st0" d="M385.45,173.71h-9.38c-0.11-2.32-1.86-4.22-4.12-4.54c0.32-0.66,0.75-1.29,1.31-1.84
				c2.65-2.65,6.94-2.65,9.58,0l4.52,4.46v0.07v1.86l-1.9,2.38V173.71z"/>
			<path class="st0" d="M371.27,170.72c-1.77,0-3.21,1.44-3.21,3.21s1.44,3.21,3.21,3.21c1.77,0,3.21-1.44,3.21-3.21
				S373.04,170.72,371.27,170.72z M373.06,173.93c0,0.99-0.8,1.79-1.79,1.79c-0.99,0-1.79-0.8-1.79-1.79c0-0.99,0.8-1.79,1.79-1.79
				C372.25,172.14,373.06,172.95,373.06,173.93z"/>
			<path class="st0" d="M375.97,174.96l4.79,5.31c-1.96,0.43-3.54,1.87-4.16,3.75l-4.79-5.31
				C373.86,178.48,375.53,176.95,375.97,174.96z"/>
			<path class="st0" d="M383.38,180.32l10.44-8.22v5.13c0,0.61,0.2,1.41,0.48,1.95l2.19,4.18l-9.06,3.82
				c0.11-0.45,0.18-0.91,0.18-1.39C387.61,183.16,385.81,180.96,383.38,180.32z"/>
		</g>
	</g>
</g>
<g>
	<g>
		<path class="st0" d="M721.48,243.44l-2.13-6.2l0,0l-2.73-7.95l0,0l-2.61-7.6l0,0l-2.73-7.95l0,0l-2.13-6.21
			c-0.36-1.04-0.83-1.57-1.3-1.57s-0.94,0.52-1.3,1.57l-2.13,6.21l0,0l-2.73,7.95l0,0l-2.61,7.6l0,0l-2.73,7.95l0,0l-2.13,6.2
			H721.48z M719.24,241.84h-22.77l1.58-4.6h19.61L719.24,241.84z M707.86,208.67l1.74,5.06h-3.48L707.86,208.67z M703.39,221.68
			h8.93l2.61,7.6h-14.15L703.39,221.68z"/>
		<path class="st0" d="M721.59,245.04h-27.47c-1.15,0-2.08,0.93-2.08,2.08c0,1.15,0.93,2.09,2.08,2.09h27.47
			c1.15,0,2.09-0.93,2.09-2.09C723.68,245.97,722.74,245.04,721.59,245.04z"/>
	</g>
	<defs>
		
			<filter id="Adobe_OpacityMaskFilter_00000164507899486231374850000017701325469975986067_" filterUnits="userSpaceOnUse" x="692.04" y="249.21" width="31.64" height="43.25">
			<feColorMatrix  type="matrix" values="1 0 0 0 0  0 1 0 0 0  0 0 1 0 0  0 0 0 1 0"/>
		</filter>
	</defs>
	
		<mask maskUnits="userSpaceOnUse" x="692.04" y="249.21" width="31.64" height="43.25" id="SVGID_00000016071385169383137420000013336397314496144816_">
		<g style="filter:url(#Adobe_OpacityMaskFilter_00000164507899486231374850000017701325469975986067_);">
			
				<linearGradient id="SVGID_00000037672509069124501280000002707757020057520558_" gradientUnits="userSpaceOnUse" x1="711.4118" y1="283.2802" x2="711.4118" y2="249.206">
				<stop  offset="0" style="stop-color:#000000"/>
				<stop  offset="0.3726" style="stop-color:#020202"/>
				<stop  offset="0.5069" style="stop-color:#090909"/>
				<stop  offset="0.6026" style="stop-color:#141414"/>
				<stop  offset="0.68" style="stop-color:#252525"/>
				<stop  offset="0.7463" style="stop-color:#3B3B3B"/>
				<stop  offset="0.805" style="stop-color:#575757"/>
				<stop  offset="0.8581" style="stop-color:#777777"/>
				<stop  offset="0.9069" style="stop-color:#9D9D9D"/>
				<stop  offset="0.9523" style="stop-color:#C8C8C8"/>
				<stop  offset="0.9926" style="stop-color:#F6F6F6"/>
				<stop  offset="1" style="stop-color:#FFFFFF"/>
			</linearGradient>
			
				<rect x="668.38" y="249.21" style="fill:url(#SVGID_00000037672509069124501280000002707757020057520558_);" width="86.06" height="34.07"/>
		</g>
	</mask>
	<g style="opacity:0.5;mask:url(#SVGID_00000016071385169383137420000013336397314496144816_);">
		<path class="st0" d="M694.23,254.98l2.13,6.2l0,0l2.73,7.95l0,0l2.61,7.6l0,0l2.73,7.95l0,0l2.13,6.21
			c0.36,1.04,0.83,1.57,1.3,1.57s0.94-0.52,1.3-1.57l2.13-6.21l0,0l2.73-7.95l0,0l2.61-7.6l0,0l2.73-7.95l0,0l2.13-6.2H694.23z
			 M717.66,261.18h-19.61l-1.58-4.6h22.77L717.66,261.18z M706.12,284.68h3.48l-1.74,5.06L706.12,284.68z M700.78,269.13h14.15
			l-2.61,7.6h-8.93L700.78,269.13z"/>
		<path class="st0" d="M721.59,253.37h-27.47c-1.15,0-2.08-0.93-2.08-2.08c0-1.15,0.93-2.08,2.08-2.08h27.47
			c1.15,0,2.09,0.93,2.09,2.08C723.68,252.44,722.74,253.37,721.59,253.37z"/>
	</g>
</g>
<g>
	<g>
		<path class="st0" d="M507.26,199.64c0.28,0,0.56,0.04,0.83,0.11c0.83,0.22,1.51,0.75,1.94,1.49c0.43,0.74,0.54,1.6,0.32,2.43
			c-0.38,1.4-1.64,2.37-3.09,2.37c-0.28,0-0.56-0.04-0.83-0.11c-0.83-0.22-1.52-0.75-1.94-1.49c-0.43-0.74-0.54-1.6-0.32-2.43
			C504.54,200.62,505.81,199.64,507.26,199.64L507.26,199.64z M507.26,198.04c-2.12,0-4.06,1.42-4.63,3.56
			c-0.69,2.56,0.83,5.19,3.39,5.88c0.42,0.11,0.83,0.17,1.25,0.17c2.12,0,4.06-1.42,4.63-3.56c0.69-2.56-0.83-5.19-3.39-5.88
			C508.09,198.1,507.67,198.04,507.26,198.04L507.26,198.04z"/>
		<path class="st0" d="M532.68,212.23l-6.1-5.41c-0.41-0.36-0.91-0.6-1.46-0.68l-7.97-1.16c-0.62-0.09-1.26,0.03-1.8,0.34l-8.8,5.08
			c-0.75,0.43-1.25,1.17-1.37,2.02l-1.04,7.15l-4.85,5.47c-0.5,0.56-0.75,1.28-0.7,2.03c0.04,0.75,0.38,1.43,0.94,1.93
			c0.51,0.46,1.17,0.71,1.86,0.71c0.8,0,1.56-0.34,2.1-0.94l5.41-6.1c0.36-0.41,0.6-0.91,0.68-1.46l0.46-3.19l4.13,7.15l-4.29,8.42
			c-0.27,0.54-0.39,1.14-0.33,1.75l0.98,10.6c0.16,1.75,1.69,3.06,3.48,2.89c1.76-0.16,3.05-1.73,2.89-3.48l-0.9-9.68l4.45-8.74
			l0.5,8.18c0.01,0.22,0.05,0.45,0.11,0.66l3.08,11.09c0.38,1.38,1.65,2.35,3.08,2.35c0.29,0,0.57-0.04,0.86-0.12
			c0.82-0.23,1.51-0.76,1.93-1.51c0.42-0.74,0.53-1.61,0.3-2.43l-2.99-10.76l-0.61-9.96c-0.06-1-0.5-2.46-1-3.33l-5.81-10.05
			l3.6,0.52l5.47,4.85c0.51,0.46,1.17,0.71,1.86,0.71l0,0c0.8,0,1.56-0.34,2.09-0.94c0.5-0.56,0.75-1.28,0.7-2.03
			C533.57,213.41,533.24,212.72,532.68,212.23z M512.58,213.7l-2.14-3.7l2.62-1.51l2.27,3.45L512.58,213.7z M509.41,214.84
			c-0.33,0.06-0.59,0.33-0.64,0.67l-0.79,5.47c-0.03,0.23-0.13,0.45-0.29,0.62l-5.41,6.1c-0.42,0.48-1.22,0.52-1.69,0.1
			c-0.24-0.21-0.38-0.51-0.4-0.83c-0.02-0.32,0.09-0.63,0.3-0.87l5.01-5.65c0.1-0.12,0.17-0.26,0.19-0.42l1.07-7.38
			c0.05-0.37,0.27-0.68,0.59-0.87l1.71-0.99l2.27,3.93c0.14,0.27,0.23,0.57,0.23,0.89c0,0.44-0.16,0.84-0.4,1.17l-0.91-1.57
			C510.09,214.93,509.75,214.78,509.41,214.84z M531.72,215.12c-0.23,0.26-0.55,0.4-0.9,0.4c-0.29,0-0.58-0.11-0.8-0.3l-5.65-5.01
			c-0.12-0.1-0.26-0.17-0.42-0.19l-5.47-0.79c-0.3-0.05-0.61,0.09-0.78,0.34c-0.17,0.25-0.18,0.58-0.03,0.85l0.91,1.57
			c-0.07,0.01-0.14,0.03-0.21,0.03c-0.71,0-1.33-0.37-1.68-0.93l0,0l-2.23-3.39l1.7-0.98c0.23-0.13,0.5-0.19,0.77-0.15l7.98,1.16
			c0.23,0.03,0.45,0.13,0.62,0.29l6.1,5.41c0.24,0.21,0.38,0.51,0.4,0.83C532.04,214.57,531.93,214.88,531.72,215.12z"/>
		<path class="st0" d="M531.66,214.08c-0.19-0.4-0.66-0.57-1.06-0.39l-40.22,18.76l-1.09-2.34c-0.19-0.4-0.66-0.57-1.06-0.39
			l-2.98,1.39c-2.92,1.36-2.29,5.68-2.29,5.68c0,0,2.9,3.26,5.82,1.9l2.98-1.39c0.4-0.19,0.57-0.66,0.39-1.06l-0.79-1.68l-0.31,0.14
			c-2.73,1.27-5.1,1.98-5.28,1.58c-0.06-0.14,0.14-0.38,0.53-0.7c0.88-0.09,2.71-0.73,4.75-1.68l40.22-18.77
			C531.67,214.95,531.85,214.48,531.66,214.08z"/>
		<path class="st0" d="M512.11,202.12h-0.08c-0.38-1.96-1.71-3.64-3.61-4.19c-2.68-0.78-5.44,0.95-6.16,3.88
			c-0.03,0.1-0.04,0.21-0.05,0.31h-0.88c-0.22,0-0.4,0.18-0.4,0.4c0,0.22,0.18,0.4,0.4,0.4h10.79c0.22,0,0.4-0.18,0.4-0.4
			C512.51,202.3,512.33,202.12,512.11,202.12z"/>
	</g>
	<defs>
		
			<filter id="Adobe_OpacityMaskFilter_00000013166404102456806540000016015734327860384151_" filterUnits="userSpaceOnUse" x="482.89" y="249.21" width="50.73" height="51.46">
			<feColorMatrix  type="matrix" values="1 0 0 0 0  0 1 0 0 0  0 0 1 0 0  0 0 0 1 0"/>
		</filter>
	</defs>
	
		<mask maskUnits="userSpaceOnUse" x="482.89" y="249.21" width="50.73" height="51.46" id="SVGID_00000145764746907083140400000000379799525206311349_">
		<g style="filter:url(#Adobe_OpacityMaskFilter_00000013166404102456806540000016015734327860384151_);">
			
				<linearGradient id="SVGID_00000017484710284318772350000013228456047297153723_" gradientUnits="userSpaceOnUse" x1="509.4072" y1="283.2802" x2="509.4072" y2="249.206">
				<stop  offset="0" style="stop-color:#000000"/>
				<stop  offset="0.3726" style="stop-color:#020202"/>
				<stop  offset="0.5069" style="stop-color:#090909"/>
				<stop  offset="0.6026" style="stop-color:#141414"/>
				<stop  offset="0.68" style="stop-color:#252525"/>
				<stop  offset="0.7463" style="stop-color:#3B3B3B"/>
				<stop  offset="0.805" style="stop-color:#575757"/>
				<stop  offset="0.8581" style="stop-color:#777777"/>
				<stop  offset="0.9069" style="stop-color:#9D9D9D"/>
				<stop  offset="0.9523" style="stop-color:#C8C8C8"/>
				<stop  offset="0.9926" style="stop-color:#F6F6F6"/>
				<stop  offset="1" style="stop-color:#FFFFFF"/>
			</linearGradient>
			
				<rect x="466.38" y="249.21" style="fill:url(#SVGID_00000017484710284318772350000013228456047297153723_);" width="86.06" height="34.07"/>
		</g>
	</mask>
	<g style="opacity:0.5;mask:url(#SVGID_00000145764746907083140400000000379799525206311349_);">
		<path class="st0" d="M507.26,298.77c-1.44,0-2.71-0.98-3.09-2.37c-0.22-0.83-0.11-1.69,0.32-2.43c0.43-0.74,1.12-1.27,1.94-1.49
			c0.27-0.07,0.55-0.11,0.83-0.11c1.44,0,2.71,0.98,3.09,2.37c0.22,0.83,0.11,1.69-0.32,2.43c-0.43,0.74-1.12,1.27-1.94,1.49
			C507.82,298.73,507.54,298.77,507.26,298.77L507.26,298.77z M507.26,300.37c0.41,0,0.83-0.05,1.25-0.17
			c2.56-0.69,4.08-3.32,3.39-5.88c-0.57-2.14-2.51-3.56-4.63-3.56c-0.41,0-0.83,0.05-1.25,0.16c-2.56,0.69-4.08,3.32-3.39,5.88
			C503.2,298.95,505.14,300.37,507.26,300.37L507.26,300.37z"/>
		<path class="st0" d="M533.62,284.26c0.04-0.75-0.2-1.47-0.7-2.03c-0.53-0.6-1.29-0.94-2.09-0.94l0,0c-0.69,0-1.34,0.25-1.86,0.71
			l-5.47,4.85l-3.6,0.52l5.81-10.05c0.5-0.87,0.94-2.33,1-3.33l0.61-9.96l2.99-10.76c0.23-0.82,0.12-1.69-0.3-2.43
			c-0.42-0.74-1.11-1.28-1.93-1.51c-0.28-0.08-0.57-0.12-0.86-0.12c-1.43,0-2.7,0.96-3.08,2.35l-3.08,11.09
			c-0.06,0.21-0.1,0.44-0.11,0.66l-0.5,8.18l-4.45-8.74l0.9-9.68c0.16-1.76-1.13-3.32-2.89-3.48c-1.79-0.17-3.32,1.14-3.48,2.89
			l-0.98,10.6c-0.06,0.61,0.06,1.21,0.33,1.75l4.29,8.42l-4.13,7.15l-0.46-3.19c-0.08-0.54-0.31-1.05-0.68-1.46l-5.41-6.1
			c-0.53-0.6-1.29-0.94-2.1-0.94c-0.69,0-1.35,0.25-1.86,0.71c-0.56,0.5-0.89,1.18-0.94,1.93c-0.04,0.75,0.2,1.47,0.7,2.03
			l4.85,5.47l1.04,7.15c0.12,0.85,0.62,1.59,1.37,2.02l8.8,5.08c0.54,0.31,1.18,0.44,1.8,0.34l7.97-1.16
			c0.54-0.08,1.05-0.31,1.46-0.68l6.1-5.41C533.24,285.69,533.57,285.01,533.62,284.26z M515.34,286.47l-2.27,3.45l-2.62-1.51
			l2.14-3.7L515.34,286.47z M510.26,283.18l0.91-1.57c0.24,0.33,0.4,0.73,0.4,1.17c0,0.32-0.09,0.62-0.23,0.89l-2.27,3.93
			l-1.71-0.99c-0.32-0.18-0.54-0.5-0.59-0.87l-1.07-7.38c-0.02-0.15-0.09-0.3-0.19-0.42l-5.01-5.65c-0.21-0.24-0.32-0.55-0.3-0.87
			c0.02-0.32,0.16-0.61,0.4-0.83c0.48-0.42,1.27-0.38,1.69,0.1l5.41,6.1c0.16,0.18,0.26,0.39,0.29,0.62l0.79,5.47
			c0.05,0.34,0.31,0.61,0.64,0.67C509.75,283.63,510.09,283.48,510.26,283.18z M532.02,284.16c-0.02,0.32-0.16,0.61-0.4,0.83
			l-6.1,5.41c-0.18,0.16-0.39,0.26-0.62,0.29l-7.98,1.16c-0.27,0.04-0.54-0.01-0.77-0.15l-1.7-0.98l2.23-3.39l0,0
			c0.36-0.56,0.97-0.93,1.68-0.93c0.07,0,0.14,0.02,0.21,0.03l-0.91,1.57c-0.15,0.27-0.14,0.59,0.03,0.85
			c0.17,0.25,0.47,0.39,0.78,0.34l5.47-0.8c0.15-0.02,0.3-0.09,0.42-0.19l5.65-5.01c0.22-0.19,0.5-0.3,0.8-0.3
			c0.34,0,0.67,0.15,0.9,0.4C531.93,283.54,532.04,283.84,532.02,284.16z"/>
		<path class="st0" d="M531.66,284.33c-0.19,0.4-0.66,0.57-1.06,0.39l-40.22-18.76l-1.09,2.34c-0.19,0.4-0.66,0.57-1.06,0.39
			l-2.98-1.39c-2.92-1.36-2.29-5.68-2.29-5.68c0,0,2.9-3.26,5.82-1.9l2.98,1.39c0.4,0.19,0.57,0.66,0.39,1.06l-0.79,1.68l-0.31-0.14
			c-2.73-1.27-5.1-1.98-5.28-1.58c-0.06,0.14,0.14,0.38,0.53,0.7c0.88,0.09,2.71,0.73,4.75,1.68l40.22,18.77
			C531.67,283.46,531.85,283.93,531.66,284.33z"/>
		<path class="st0" d="M512.11,296.29h-0.08c-0.38,1.96-1.71,3.64-3.61,4.19c-2.68,0.78-5.44-0.95-6.16-3.88
			c-0.03-0.1-0.04-0.21-0.05-0.31h-0.88c-0.22,0-0.4-0.18-0.4-0.4c0-0.22,0.18-0.4,0.4-0.4h10.79c0.22,0,0.4,0.18,0.4,0.4
			C512.51,296.11,512.33,296.29,512.11,296.29z"/>
	</g>
</g>
<g>
	<g>
		<path class="st0" d="M619.78,216.02c0-0.15-0.12-0.28-0.28-0.28h-0.05c-0.26-1.36-1.18-2.51-2.5-2.89
			c-1.86-0.54-3.77,0.66-4.26,2.68c-0.02,0.07-0.03,0.14-0.04,0.21h-0.61c-0.16,0-0.28,0.12-0.28,0.28c0,0.15,0.12,0.28,0.28,0.28
			h0.83c-0.02,0.88,0.3,1.76,0.96,2.43c0.65,0.65,1.5,0.97,2.35,0.97c0.85,0,1.7-0.32,2.35-0.97c0.67-0.67,0.99-1.55,0.96-2.43h0.01
			C619.66,216.3,619.78,216.17,619.78,216.02z M617.97,218.16c-0.48,0.47-1.11,0.74-1.78,0.74c-0.67,0-1.31-0.26-1.78-0.74
			c-0.51-0.51-0.75-1.19-0.73-1.86h5.02C618.72,216.97,618.48,217.65,617.97,218.16z"/>
		<path class="st0" d="M628.78,197.75h-31.05h-2.24h-0.8h-1.44h-10.89v51.46h26.91c-0.24-0.41-0.41-0.87-0.46-1.37l-0.68-7.33
			c-0.06-0.62,0.06-1.24,0.34-1.79l1.01-1.99h-14h-0.64v-37.38h0.64h2.24h31.05h2.87v2.87v31.63v1.54v0.7v0.64h-9.3l0.17,2.62
			l2.03,7.33c0.23,0.84,0.12,1.72-0.3,2.48c-0.01,0.02-0.03,0.04-0.04,0.05h9.05v-10.88v-2.24v-0.7v-1.54v-31.63v-4.47H628.78z"/>
		<path class="st0" d="M616.13,240.75c-0.06-0.22-0.1-0.46-0.11-0.7l-0.09-1.62l-1.23,2.41l0.59,6.39c0.07,0.72-0.12,1.4-0.46,1.98
			h3.77c-0.15-0.25-0.27-0.51-0.35-0.79L616.13,240.75z"/>
		<path class="st0" d="M624.62,225.73v2.62h-2.58v3.52l0.23,3.58h6.51h1.6v-1.6v-13.28c-0.11,0.17-0.23,0.33-0.37,0.48l-3.61,3.79
			C625.92,225.34,625.29,225.64,624.62,225.73z"/>
		<path class="st0" d="M630.38,202.22v-1.6h-1.6h-31.05h-1.6v1.6v31.63v1.6h1.6h12.41l1.48-2.91l0-4.19h-9.75v-12.72h8.34
			c0.14-0.65,0.61-1.17,1.23-1.38c0.59-1.37,1.71-2.41,3.05-2.87v-4.98h10.12v11.66l1.07-1.12c0.56-0.59,1.35-0.93,2.16-0.93
			c0.77,0,1.5,0.29,2.06,0.82c0.19,0.18,0.34,0.38,0.47,0.59V202.22z M611.99,213.13h-10.12v-6.73h10.12V213.13z"/>
		<path class="st0" d="M620.92,239.61c0,0-0.48-7.68-0.48-7.68l0-8.92l3.37,1.1c0.14,0.05,0.29,0.07,0.43,0.07
			c0.37,0,0.73-0.15,1-0.43l3.61-3.8c0.53-0.55,0.51-1.43-0.05-1.95c-0.27-0.25-0.61-0.38-0.95-0.38c-0.37,0-0.73,0.14-1,0.43
			l-3.01,3.16l-3.54-1.16c-0.11-0.04-0.23-0.05-0.34-0.05c-0.02,0-0.04-0.01-0.07-0.01h-0.77h-0.95h-2.68h-0.95h-1.32
			c-0.15,0-0.29,0.02-0.43,0.07l-3.54,1.16l-3.01-3.16c-0.27-0.29-0.64-0.43-1-0.43c-0.34,0-0.69,0.13-0.95,0.38
			c-0.55,0.53-0.58,1.4-0.05,1.95l3.61,3.8c0.27,0.28,0.63,0.43,1,0.43c0.14,0,0.29-0.02,0.43-0.07l3.94-1.29l0,10.11l-3.32,6.52
			c-0.14,0.28-0.2,0.59-0.17,0.91l0.68,7.33c0.08,0.86,0.8,1.5,1.65,1.5c0.05,0,0.1,0,0.16-0.01c0.91-0.09,1.58-0.89,1.5-1.81
			l-0.64-6.86l3.45-6.78c0.03-0.06,0.05-0.13,0.08-0.19l0.68,0l0.34,6.42c0.01,0.12,0.03,0.24,0.06,0.35l2.13,7.67
			c0.2,0.73,0.87,1.22,1.6,1.22c0.15,0,0.3-0.02,0.45-0.06c0.88-0.24,1.4-1.16,1.16-2.04L620.92,239.61z M619.79,220.78l0.02,0.01
			l0.08,0c0.08,0,0.13,0.01,0.15,0.02l3.54,1.16l0.48,0.16l0.35-0.37l3.01-3.16c0.11-0.12,0.26-0.18,0.42-0.18
			c0.15,0,0.29,0.06,0.4,0.16c0.11,0.11,0.18,0.25,0.18,0.41c0,0.15-0.05,0.3-0.16,0.42l-3.61,3.8c-0.11,0.11-0.26,0.18-0.42,0.18
			c-0.06,0-0.13-0.01-0.18-0.03l-3.37-1.1l-1.05-0.34v1.1v0.93c-0.25-0.18-0.43-0.43-0.52-0.73v-2.43H619.79z M618.17,220.78v2.04
			h-2.68v-2.04H618.17z M612.97,222.05l-3.94,1.28c-0.06,0.02-0.12,0.03-0.19,0.03c-0.16,0-0.31-0.07-0.42-0.18l-3.61-3.8
			c-0.11-0.11-0.16-0.26-0.16-0.41c0-0.16,0.07-0.3,0.18-0.41c0.11-0.1,0.25-0.16,0.4-0.16c0.16,0,0.31,0.06,0.42,0.18l3.01,3.16
			l0.35,0.37l0.48-0.16l3.54-1.16c0.06-0.02,0.12-0.03,0.18-0.03h1.32v2.42c-0.09,0.3-0.28,0.55-0.52,0.73v-1.12v-1.1L612.97,222.05
			z"/>
	</g>
	<defs>
		
			<filter id="Adobe_OpacityMaskFilter_00000000203643088578375860000012799243841408589451_" filterUnits="userSpaceOnUse" x="582.36" y="249.21" width="50.89" height="51.46">
			<feColorMatrix  type="matrix" values="1 0 0 0 0  0 1 0 0 0  0 0 1 0 0  0 0 0 1 0"/>
		</filter>
	</defs>
	
		<mask maskUnits="userSpaceOnUse" x="582.36" y="249.21" width="50.89" height="51.46" id="SVGID_00000102529559673449298390000010674808513273853832_">
		<g style="filter:url(#Adobe_OpacityMaskFilter_00000000203643088578375860000012799243841408589451_);">
			
				<linearGradient id="SVGID_00000014596189523935090820000000888254094188693123_" gradientUnits="userSpaceOnUse" x1="610.4099" y1="283.2802" x2="610.4099" y2="249.206">
				<stop  offset="0" style="stop-color:#000000"/>
				<stop  offset="0.3726" style="stop-color:#020202"/>
				<stop  offset="0.5069" style="stop-color:#090909"/>
				<stop  offset="0.6026" style="stop-color:#141414"/>
				<stop  offset="0.68" style="stop-color:#252525"/>
				<stop  offset="0.7463" style="stop-color:#3B3B3B"/>
				<stop  offset="0.805" style="stop-color:#575757"/>
				<stop  offset="0.8581" style="stop-color:#777777"/>
				<stop  offset="0.9069" style="stop-color:#9D9D9D"/>
				<stop  offset="0.9523" style="stop-color:#C8C8C8"/>
				<stop  offset="0.9926" style="stop-color:#F6F6F6"/>
				<stop  offset="1" style="stop-color:#FFFFFF"/>
			</linearGradient>
			
				<rect x="567.38" y="249.21" style="fill:url(#SVGID_00000014596189523935090820000000888254094188693123_);" width="86.06" height="34.07"/>
		</g>
	</mask>
	<g style="opacity:0.5;mask:url(#SVGID_00000102529559673449298390000010674808513273853832_);">
		<path class="st0" d="M619.5,282.12L619.5,282.12c0.01-0.88-0.3-1.76-0.97-2.43c-0.65-0.65-1.5-0.97-2.35-0.97
			c-0.85,0-1.7,0.32-2.35,0.97c-0.67,0.67-0.98,1.55-0.96,2.43h-0.83c-0.16,0-0.28,0.12-0.28,0.28c0,0.15,0.12,0.28,0.28,0.28h0.61
			c0.01,0.07,0.02,0.14,0.04,0.21c0.49,2.02,2.4,3.23,4.26,2.68c1.31-0.38,2.23-1.54,2.5-2.89h0.05c0.15,0,0.28-0.12,0.28-0.28
			C619.78,282.24,619.66,282.12,619.5,282.12z M618.7,282.12h-5.02c-0.02-0.67,0.22-1.35,0.73-1.86c0.48-0.47,1.11-0.74,1.78-0.74
			c0.67,0,1.31,0.26,1.78,0.74C618.48,280.76,618.72,281.44,618.7,282.12z"/>
		<path class="st0" d="M628.78,300.66h-31.05h-2.24h-0.8h-1.44h-10.89v-51.46h26.91c-0.24,0.41-0.41,0.87-0.46,1.37l-0.68,7.33
			c-0.06,0.62,0.06,1.24,0.34,1.79l1.01,1.99h-14h-0.64v37.38h0.64h2.24h31.05h2.87v-2.87v-31.63v-1.54v-0.7v-0.64h-9.3l0.17-2.62
			l2.03-7.33c0.23-0.84,0.12-1.72-0.3-2.48c-0.01-0.02-0.03-0.04-0.04-0.05h9.05v10.88v2.24v0.7v1.54v31.63v4.47H628.78z"/>
		<path class="st0" d="M616.13,257.66c-0.06,0.22-0.1,0.46-0.11,0.7l-0.09,1.62l-1.23-2.41l0.59-6.39c0.07-0.72-0.12-1.4-0.46-1.98
			h3.77c-0.15,0.25-0.27,0.51-0.35,0.79L616.13,257.66z"/>
		<path class="st0" d="M624.62,272.68v-2.62h-2.58v-3.52l0.23-3.58h6.51h1.6v1.6v13.28c-0.11-0.17-0.23-0.33-0.37-0.48l-3.61-3.79
			C625.92,273.07,625.29,272.77,624.62,272.68z"/>
		<path class="st0" d="M630.38,280.99c-0.13,0.21-0.28,0.42-0.47,0.59c-0.56,0.53-1.29,0.82-2.06,0.82c-0.81,0-1.6-0.34-2.16-0.93
			l-1.07-1.12v11.66h-10.12v-4.98c-1.34-0.46-2.46-1.5-3.05-2.87c-0.62-0.21-1.09-0.74-1.23-1.38h-8.34v-12.72h9.75l0-4.19
			l-1.48-2.91h-12.41h-1.6v1.6v31.63v1.6h1.6h31.05h1.6v-1.6V280.99z M611.99,292.01h-10.12v-6.73h10.12V292.01z"/>
		<path class="st0" d="M623,251.31c0.25-0.88-0.28-1.8-1.16-2.04c-0.15-0.04-0.3-0.06-0.45-0.06c-0.73,0-1.39,0.48-1.6,1.22
			l-2.13,7.67c-0.03,0.11-0.05,0.23-0.06,0.35l-0.34,6.42l-0.68,0c-0.02-0.06-0.04-0.13-0.08-0.19l-3.45-6.78l0.64-6.86
			c0.08-0.91-0.59-1.72-1.5-1.81c-0.05-0.01-0.1-0.01-0.16-0.01c-0.85,0-1.57,0.64-1.65,1.5l-0.68,7.33
			c-0.03,0.31,0.03,0.63,0.17,0.91l3.32,6.52l0,10.11l-3.94-1.29c-0.14-0.05-0.29-0.07-0.43-0.07c-0.37,0-0.73,0.15-1,0.43
			l-3.61,3.8c-0.53,0.55-0.51,1.43,0.05,1.95c0.27,0.25,0.61,0.38,0.95,0.38c0.37,0,0.73-0.14,1-0.43l3.01-3.16l3.54,1.16
			c0.14,0.05,0.28,0.07,0.43,0.07h1.32h0.95h2.68h0.95h0.77c0.02,0,0.04-0.01,0.07-0.01c0.12-0.01,0.23-0.02,0.34-0.05l3.54-1.16
			l3.01,3.16c0.27,0.29,0.64,0.43,1,0.43c0.34,0,0.69-0.13,0.95-0.38c0.55-0.53,0.58-1.4,0.05-1.95l-3.61-3.8
			c-0.27-0.28-0.63-0.43-1-0.43c-0.14,0-0.29,0.02-0.43,0.07l-3.37,1.1l0-8.92c0,0,0.48-7.68,0.48-7.68L623,251.31z M619.12,277.63
			v-2.43c0.09-0.3,0.28-0.55,0.52-0.73v0.93v1.1l1.05-0.34l3.37-1.1c0.06-0.02,0.12-0.03,0.18-0.03c0.16,0,0.31,0.07,0.42,0.18
			l3.61,3.8c0.11,0.11,0.17,0.26,0.16,0.42c0,0.16-0.07,0.3-0.18,0.41c-0.11,0.1-0.25,0.16-0.4,0.16c-0.16,0-0.31-0.06-0.42-0.18
			l-3.01-3.16l-0.35-0.37l-0.48,0.16l-3.54,1.16c-0.02,0.01-0.07,0.01-0.15,0.02l-0.08,0l-0.02,0.01H619.12z M615.49,277.63v-2.04
			h2.68v2.04H615.49z M614.02,276.7v-1.1v-1.12c0.25,0.18,0.43,0.43,0.52,0.73v2.42h-1.32c-0.06,0-0.12-0.01-0.18-0.03l-3.54-1.16
			l-0.48-0.16l-0.35,0.37l-3.01,3.17c-0.11,0.12-0.26,0.18-0.42,0.18c-0.15,0-0.29-0.06-0.4-0.16c-0.11-0.11-0.18-0.25-0.18-0.41
			c0-0.15,0.05-0.3,0.16-0.41l3.61-3.8c0.11-0.11,0.26-0.18,0.42-0.18c0.06,0,0.13,0.01,0.19,0.03l3.94,1.28L614.02,276.7z"/>
	</g>
</g>
<g>
	<g>
		<path class="st0" d="M386.45,206.92v42.29h42.82v-42.29H386.45z M406.66,246.81h-17.81v-37.49h17.81V246.81z M426.87,246.81
			h-17.81v-37.49h17.81V246.81z"/>
		<path class="st0" d="M424.47,231.4v-15.73v-3.95h-4.48h-8.53v8.53v8.43v15.73h13.01V231.4z M420.65,213.32h2.22V215l-9.81,9.81
			v-3.9L420.65,213.32z M422.87,242.81h-7.55l7.55-7.54V242.81z"/>
		<path class="st0" d="M404.26,244.41v-8.53v-8.43v-15.73h-13.01v13.01v15.73v3.95h4.48H404.26z M392.85,213.32h7.55l-7.55,7.55
			V213.32z M395.06,242.81h-2.22v-1.69l9.81-9.81v3.9L395.06,242.81z"/>
	</g>
	<defs>
		
			<filter id="Adobe_OpacityMaskFilter_00000142895443698281174200000002907759534776977316_" filterUnits="userSpaceOnUse" x="386.45" y="249.21" width="42.82" height="42.29">
			<feColorMatrix  type="matrix" values="1 0 0 0 0  0 1 0 0 0  0 0 1 0 0  0 0 0 1 0"/>
		</filter>
	</defs>
	
		<mask maskUnits="userSpaceOnUse" x="386.45" y="249.21" width="42.82" height="42.29" id="SVGID_00000005268973226373656420000003335979377270889918_">
		<g style="filter:url(#Adobe_OpacityMaskFilter_00000142895443698281174200000002907759534776977316_);">
			
				<linearGradient id="SVGID_00000002365492625522208460000017608612259592122800_" gradientUnits="userSpaceOnUse" x1="408.4048" y1="283.2802" x2="408.4048" y2="249.206">
				<stop  offset="0" style="stop-color:#000000"/>
				<stop  offset="0.3726" style="stop-color:#020202"/>
				<stop  offset="0.5069" style="stop-color:#090909"/>
				<stop  offset="0.6026" style="stop-color:#141414"/>
				<stop  offset="0.68" style="stop-color:#252525"/>
				<stop  offset="0.7463" style="stop-color:#3B3B3B"/>
				<stop  offset="0.805" style="stop-color:#575757"/>
				<stop  offset="0.8581" style="stop-color:#777777"/>
				<stop  offset="0.9069" style="stop-color:#9D9D9D"/>
				<stop  offset="0.9523" style="stop-color:#C8C8C8"/>
				<stop  offset="0.9926" style="stop-color:#F6F6F6"/>
				<stop  offset="1" style="stop-color:#FFFFFF"/>
			</linearGradient>
			
				<rect x="365.37" y="249.21" style="fill:url(#SVGID_00000002365492625522208460000017608612259592122800_);" width="86.06" height="34.07"/>
		</g>
	</mask>
	<g style="opacity:0.5;mask:url(#SVGID_00000005268973226373656420000003335979377270889918_);">
		<path class="st0" d="M429.27,291.5v-42.29h-42.82v42.29H429.27z M406.66,289.1h-17.81v-37.49h17.81V289.1z M426.87,289.1h-17.81
			v-37.49h17.81V289.1z"/>
		<path class="st0" d="M424.47,254.01h-13.01v15.73v8.43v8.53h8.53h4.48v-3.95v-15.73V254.01z M413.06,277.5v-3.9l9.81,9.81v1.69
			h-2.22L413.06,277.5z M422.87,263.15l-7.55-7.54h7.55V263.15z"/>
		<path class="st0" d="M395.73,254.01h-4.48v3.95v15.73v13.01h13.01v-15.73v-8.43v-8.53H395.73z M392.85,277.55l7.55,7.55h-7.55
			V277.55z M402.66,263.2v3.9l-9.81-9.81v-1.69h2.22L402.66,263.2z"/>
	</g>
</g>
<g>
	<path class="st0" d="M187.71,63.65l-31.64-28.31c-0.55-0.49-1.27-0.77-2.01-0.77H93.8V9.28c0-1.67-1.35-3.02-3.02-3.02H50.86
		c-1.67,0-3.02,1.35-3.02,3.02v25.29H19.22c-1.67,0-3.02,1.35-3.02,3.02V65.9c0,1.67,1.35,3.02,3.02,3.02h28.62v110.21H35.15
		l-5.32,7.73v10.89h81.98v-10.89l-5.32-7.73H93.8V68.92h52.71v44.29h-1.84v10.89l5.32,7.73h4.33v4.5c0,0.83,0.68,1.51,1.51,1.51
		c3.18,0,5.76,2.59,5.76,5.77c0,3.18-2.59,5.77-5.76,5.77c-1.84,0-3.53-0.85-4.63-2.33c-0.5-0.67-1.45-0.81-2.11-0.31
		c-0.67,0.5-0.81,1.44-0.31,2.11c1.65,2.22,4.29,3.55,7.06,3.55c4.85,0,8.78-3.94,8.78-8.79c0-4.33-3.15-7.94-7.27-8.66v-3.12h3.56
		l5.32-7.73V113.2h-1.84V68.92h21.32c1.25,0,2.38-0.77,2.82-1.94C188.96,65.8,188.64,64.48,187.71,63.65z M81.29,40.61l-10.47,7.43
		l-10.48-7.43H81.29z M60.34,34.57l10.48-7.43l10.48,7.43H60.34z M76.04,23.43l11.71-8.31v16.62L76.04,23.43z M70.82,19.73
		L60.34,12.3h20.95L70.82,19.73z M65.6,23.43l-11.71,8.31V15.12L65.6,23.43z M65.6,51.74l-11.71,8.31V43.43L65.6,51.74z
		 M60.34,62.88l10.48-7.43l10.48,7.43H60.34z M81.29,68.92l-10.47,7.43l-10.48-7.43H81.29z M65.6,80.05l-11.71,8.31V71.74
		L65.6,80.05z M87.75,144.97l-11.71-8.31l11.71-8.31V144.97z M85.55,150.82l-14.74,10.45l-14.74-10.45l14.74-10.45L85.55,150.82z
		 M70.82,132.96l-14.74-10.45l14.74-10.45l14.74,10.45L70.82,132.96z M87.75,116.67l-11.71-8.31l11.71-8.31V116.67z M70.82,104.65
		L56.08,94.2l14.74-10.45L85.55,94.2L70.82,104.65z M53.88,100.05l11.71,8.3l-11.71,8.31V100.05z M53.88,128.36l11.71,8.31
		l-11.71,8.31V128.36z M53.88,156.66l11.71,8.31l-11.71,8.31V156.66z M70.82,168.68l10.48,7.43H60.34L70.82,168.68z M76.04,164.97
		l11.71-8.31v16.62L76.04,164.97z M76.04,80.05l11.71-8.31v16.62L76.04,80.05z M76.04,51.74l11.71-8.31v16.62L76.04,51.74z
		 M125.44,44.34l20.71,18.53h-20.71V44.34z M119.39,59.14L98.68,40.61h20.71V59.14z M130.32,40.61h20.71v18.53L130.32,40.61z
		 M47.84,59.14L27.13,40.61h20.71V59.14z M22.24,44.34l20.71,18.53H22.24V44.34z M93.8,44.34l20.71,18.53H93.8V44.34z
		 M161.35,112.65h-11.83V68.92h11.83V112.65z M157.08,62.88V44.34l20.71,18.53H157.08z"/>
</g>
</svg>
